<?xml version="1.0" encoding="iso-8859-1"?>
<!-- Generator: Adobe Illustrator 19.0.0, SVG Export Plug-In . SVG Version: 6.00 Build 0)  -->
<svg version="1.1" id="Capa_1" xmlns="http://www.w3.org/2000/svg" xmlns:xlink="http://www.w3.org/1999/xlink" x="0px" y="0px"
	 viewBox="0 0 511.999 511.999" style="enable-background:new 0 0 511.999 511.999;" xml:space="preserve">
<circle style="fill:#87D7F5;" cx="256" cy="256.004" r="255.974"/>
<g>
	<path style="fill:#BAEAF7;" d="M14.111,172.091l174.724-0.001c7.355,0,13.321-5.965,13.321-13.321c0-3.679-1.494-7.011-3.908-9.414
		c-2.404-2.414-5.736-3.908-9.414-3.908h-82.152c-7.355,0-13.321-5.965-13.321-13.321c0-3.679,1.494-7.011,3.897-9.414
		c2.414-2.414,5.746-3.908,9.424-3.908h37.414c7.355,0,13.321-5.965,13.321-13.321c0-3.679-1.494-7.011-3.908-9.414
		c-2.404-2.414-5.736-3.908-9.414-3.908h-11.305c-7.355,0-13.321-5.965-13.321-13.321c0-3.689,1.494-7.01,3.908-9.424
		c2.404-2.413,5.736-3.897,9.414-3.897h40.496c7.355,0,13.321-5.965,13.321-13.321c0-3.689-1.494-7.01-3.908-9.424
		c-2.404-2.414-5.736-3.908-9.414-3.908h-52.879C71.32,69.588,33.4,116.48,14.111,172.091z"/>
	<path style="fill:#BAEAF7;" d="M472.656,201.569h33.495c-1.964-9.068-4.4-17.959-7.297-26.641H396.708
		c-7.358,0-13.323,5.964-13.323,13.322s-5.964,13.322-13.324,13.32h-31.645c-7.358,0-13.323,5.964-13.323,13.322
		c0,7.356,5.965,13.321,13.323,13.321h3.702c7.358,0,13.323,5.965,13.323,13.323c0,7.356,5.965,13.321,13.323,13.321h107.594
		c7.356,0,13.321-5.963,13.321-13.321c0-7.358-5.963-13.323-13.321-13.323h-3.702c-7.357,0-13.322-5.963-13.322-13.321
		S465.299,201.569,472.656,201.569z"/>
</g>
<rect x="139.422" y="227.426" style="fill:#BFA993;" width="232.536" height="75.382"/>
<rect x="139.422" y="227.426" style="fill:#AA927D;" width="53.975" height="75.382"/>
<path style="fill:#BFA993;" d="M423.918,449.22c26.824-23.356,48.575-52.106,63.752-84.311h-26.769h-36.982v84.311H423.918z"/>
<path style="fill:#EBE4DD;" d="M493.555,351.41h-69.636v26.997h56.892C485.568,369.685,489.826,360.672,493.555,351.41z"/>
<path style="fill:#AA927D;" d="M88.074,449.179v-84.27H51.091H24.292C39.609,397.514,61.5,426.094,88.074,449.179z"/>
<path style="fill:#D8CCBC;" d="M88.074,351.41H18.411c3.728,9.301,7.974,18.311,12.705,26.997h56.957L88.074,351.41L88.074,351.41z"
	/>
<path style="fill:#BFA993;" d="M88.074,434.901V321.913h67.788h200.269h67.788v112.988
	C418.534,434.901,93.701,434.901,88.074,434.901z"/>
<path style="fill:#AA927D;" d="M88.074,434.901V321.913h21.26h62.807h21.26v112.988C172.432,434.901,112.711,434.901,88.074,434.901
	z"/>
<g>
	<path style="fill:#D8CCBC;" d="M89.931,430.401h-3.714c-3.117,0-5.642-2.526-5.642-5.642v-97.204c0-3.117,2.526-5.642,5.642-5.642
		h3.714c3.117,0,5.642,2.526,5.642,5.642v97.204C95.573,427.875,93.047,430.401,89.931,430.401z"/>
	<path style="fill:#D8CCBC;" d="M131.912,430.401h-3.714c-3.117,0-5.642-2.526-5.642-5.642v-97.204c0-3.117,2.526-5.642,5.642-5.642
		h3.714c3.117,0,5.642,2.526,5.642,5.642v97.204C137.554,427.875,135.027,430.401,131.912,430.401z"/>
	<path style="fill:#D8CCBC;" d="M173.892,430.401h-3.714c-3.116,0-5.642-2.526-5.642-5.642v-97.204c0-3.117,2.526-5.642,5.642-5.642
		h3.714c3.116,0,5.642,2.526,5.642,5.642v97.204C179.535,427.875,177.008,430.401,173.892,430.401z"/>
</g>
<g>
	<path style="fill:#EBE4DD;" d="M215.873,430.401h-3.714c-3.116,0-5.642-2.526-5.642-5.642v-97.204c0-3.117,2.526-5.642,5.642-5.642
		h3.714c3.116,0,5.642,2.526,5.642,5.642v97.204C221.515,427.875,218.989,430.401,215.873,430.401z"/>
	<path style="fill:#EBE4DD;" d="M257.854,430.401h-3.714c-3.116,0-5.642-2.526-5.642-5.642v-97.204c0-3.117,2.526-5.642,5.642-5.642
		h3.714c3.116,0,5.642,2.526,5.642,5.642v97.204C263.496,427.875,260.969,430.401,257.854,430.401z"/>
	<path style="fill:#EBE4DD;" d="M299.834,430.401h-3.714c-3.116,0-5.642-2.526-5.642-5.642v-97.204c0-3.117,2.526-5.642,5.642-5.642
		h3.714c3.116,0,5.642,2.526,5.642,5.642v97.204C305.477,427.875,302.95,430.401,299.834,430.401z"/>
	<path style="fill:#EBE4DD;" d="M341.815,430.401h-3.714c-3.116,0-5.642-2.526-5.642-5.642v-97.204c0-3.117,2.526-5.642,5.642-5.642
		h3.714c3.117,0,5.642,2.526,5.642,5.642v97.204C347.457,427.875,344.931,430.401,341.815,430.401z"/>
	<path style="fill:#EBE4DD;" d="M383.796,430.401h-3.714c-3.116,0-5.642-2.526-5.642-5.642v-97.204c0-3.117,2.526-5.642,5.642-5.642
		h3.714c3.116,0,5.642,2.526,5.642,5.642v97.204C389.438,427.875,386.911,430.401,383.796,430.401z"/>
	<path style="fill:#EBE4DD;" d="M425.776,430.401h-3.714c-3.116,0-5.642-2.526-5.642-5.642v-97.204c0-3.117,2.526-5.642,5.642-5.642
		h3.714c3.116,0,5.642,2.526,5.642,5.642v97.204C431.419,427.875,428.892,430.401,425.776,430.401z"/>
</g>
<g>
	<rect x="80.578" y="321.917" style="fill:#BFA993;" width="14.998" height="29.497"/>
	<rect x="122.554" y="321.917" style="fill:#BFA993;" width="14.998" height="29.497"/>
	<rect x="164.539" y="321.917" style="fill:#BFA993;" width="14.998" height="29.497"/>
</g>
<g>
	<rect x="206.515" y="321.917" style="fill:#D8CCBC;" width="14.998" height="29.497"/>
	<rect x="248.501" y="321.917" style="fill:#D8CCBC;" width="14.998" height="29.497"/>
	<rect x="290.476" y="321.917" style="fill:#D8CCBC;" width="14.998" height="29.497"/>
	<rect x="332.462" y="321.917" style="fill:#D8CCBC;" width="14.998" height="29.497"/>
	<rect x="374.438" y="321.917" style="fill:#D8CCBC;" width="14.998" height="29.497"/>
	<rect x="416.423" y="321.917" style="fill:#D8CCBC;" width="14.998" height="29.497"/>
</g>
<path style="fill:#EBE4DD;" d="M369.425,302.799H141.964H71.921c-3.838,0-6.949,3.111-6.949,6.949v13.1
	c0,3.838,3.111,6.949,6.949,6.949h70.043h227.46h70.043c3.838,0,6.949-3.112,6.949-6.949v-13.1c0-3.838-3.111-6.949-6.949-6.949
	H369.425z"/>
<g>
	<path style="fill:#D8CCBC;" d="M187.383,322.848v-13.1c0-3.838,3.112-6.949,6.949-6.949h-52.369H71.921
		c-3.838,0-6.949,3.111-6.949,6.949v13.1c0,3.838,3.112,6.949,6.949,6.949h70.043h52.369
		C190.495,329.796,187.383,326.685,187.383,322.848z"/>
	<path style="fill:#D8CCBC;" d="M296.793,101.436h-81.592c-42.501,19.495-72.657,68.547-72.657,125.987h226.908
		C369.45,169.982,339.293,120.93,296.793,101.436z"/>
</g>
<path style="fill:#BFA993;" d="M253.772,101.436H215.2c-42.501,19.495-72.658,68.547-72.658,125.987h50.858
	C193.4,169.982,218.459,120.93,253.772,101.436z"/>
<path style="fill:#EBE4DD;" d="M374.438,234.922H137.554c-4.143,0-7.499-3.357-7.499-7.499s3.357-7.499,7.499-7.499h236.885
	c4.143,0,7.499,3.357,7.499,7.499C381.938,231.564,378.581,234.922,374.438,234.922z"/>
<path style="fill:#D8CCBC;" d="M187.03,227.422c0-4.143,3.357-7.499,7.499-7.499h-56.975c-4.143,0-7.499,3.357-7.499,7.499
	s3.357,7.499,7.499,7.499h56.975C190.387,234.922,187.03,231.564,187.03,227.422z"/>
<path style="fill:#BFA993;" d="M281.29,83.314c-2.191-2.666-5.46-4.21-8.911-4.21h-16.685h-16.369c-3.651,0-7.109,1.634-9.428,4.455
	L215.2,101.437h40.493h40.494L281.29,83.314z"/>
<path style="fill:#AA927D;" d="M259.095,79.104h-3.402h-16.369c-3.651,0-7.11,1.634-9.428,4.455L215.2,101.436h38.572l3.243-17.877
	C257.527,80.739,258.289,79.104,259.095,79.104z"/>
<path style="fill:#EBE4DD;" d="M255.846,0c-4.143,0-7.499,3.358-7.499,7.499v7.499v20.133v7.499h14.998v-7.499V14.998V7.499
	C263.345,3.358,259.987,0,255.846,0z"/>
<path style="fill:#D8CCBC;" d="M263.337,40.881h-14.984c-4.946,2.696-8.305,7.935-8.305,13.966v24.258h15.689h0.214h15.69V54.846
	C271.643,48.816,268.283,43.575,263.337,40.881z"/>
<path style="fill:#BFA993;" d="M263.744,41.12c-0.136-0.079-0.268-0.164-0.407-0.239h-14.984c-4.946,2.696-8.305,7.935-8.305,13.966
	v24.258h15.689h0.107V54.846C255.846,48.984,259.023,43.876,263.744,41.12z"/>
<g>
	<path style="fill:#D8CCBC;" d="M172.035,247.118c-4.142,0-7.499,3.358-7.499,7.499v32.548c0,4.142,3.358,7.499,7.499,7.499
		s7.499-3.358,7.499-7.499v-32.548C179.535,250.476,176.177,247.118,172.035,247.118z"/>
	<path style="fill:#D8CCBC;" d="M214.016,247.118c-4.142,0-7.499,3.358-7.499,7.499v32.548c0,4.142,3.358,7.499,7.499,7.499
		s7.499-3.358,7.499-7.499v-32.548C221.515,250.476,218.158,247.118,214.016,247.118z"/>
	<path style="fill:#D8CCBC;" d="M255.997,247.118c-4.142,0-7.499,3.358-7.499,7.499v32.548c0,4.142,3.358,7.499,7.499,7.499
		s7.499-3.358,7.499-7.499v-32.548C263.496,250.476,260.138,247.118,255.997,247.118z"/>
	<path style="fill:#D8CCBC;" d="M297.976,247.118c-4.142,0-7.499,3.358-7.499,7.499v32.548c0,4.142,3.358,7.499,7.499,7.499
		c4.143,0,7.499-3.358,7.499-7.499v-32.548C305.476,250.476,302.119,247.118,297.976,247.118z"/>
	<path style="fill:#D8CCBC;" d="M339.958,247.118c-4.142,0-7.499,3.358-7.499,7.499v32.548c0,4.142,3.358,7.499,7.499,7.499
		c4.142,0,7.499-3.358,7.499-7.499v-32.548C347.457,250.476,344.1,247.118,339.958,247.118z"/>
</g>
<path style="fill:#AA927D;" d="M172.035,187.427c-4.142,0-7.499,3.358-7.499,7.499v6.55c0,4.142,3.358,7.499,7.499,7.499
	s7.499-3.358,7.499-7.499v-6.55C179.535,190.783,176.177,187.427,172.035,187.427z"/>
<g>
	<path style="fill:#BFA993;" d="M214.016,187.427c-4.142,0-7.499,3.358-7.499,7.499v6.55c0,4.142,3.358,7.499,7.499,7.499
		s7.499-3.358,7.499-7.499v-6.55C221.515,190.783,218.158,187.427,214.016,187.427z"/>
	<path style="fill:#BFA993;" d="M255.997,187.427c-4.142,0-7.499,3.358-7.499,7.499v6.55c0,4.142,3.358,7.499,7.499,7.499
		s7.499-3.358,7.499-7.499v-6.55C263.496,190.783,260.138,187.427,255.997,187.427z"/>
	<path style="fill:#BFA993;" d="M297.976,187.427c-4.142,0-7.499,3.358-7.499,7.499v6.55c0,4.142,3.358,7.499,7.499,7.499
		c4.143,0,7.499-3.358,7.499-7.499v-6.55C305.476,190.783,302.119,187.427,297.976,187.427z"/>
	<path style="fill:#BFA993;" d="M339.958,187.427c-4.142,0-7.499,3.358-7.499,7.499v6.55c0,4.142,3.358,7.499,7.499,7.499
		c4.142,0,7.499-3.358,7.499-7.499v-6.55C347.457,190.783,344.1,187.427,339.958,187.427z"/>
</g>
<path style="fill:#EBE4DD;" d="M439.468,425.786h-70.043H141.964H71.921c-2.122,0-4.02,0.954-5.293,2.454
	c7.997,8.777,16.586,16.973,25.692,24.543c9.704,0,317.75,0,327.427,0c8.988-7.494,17.426-15.59,25.281-24.203
	C443.76,426.887,441.746,425.786,439.468,425.786z"/>
<g>
	<path style="fill:#D8CCBC;" d="M194.332,452.783c-3.838,0-6.949-3.112-6.949-6.949v-13.099c0-3.838,3.112-6.949,6.949-6.949
		h-52.369H71.921c-2.122,0-4.02,0.954-5.293,2.454c7.997,8.777,16.586,16.973,25.692,24.543
		C103.923,452.783,181.589,452.783,194.332,452.783z"/>
	<path style="fill:#D8CCBC;" d="M92.319,452.783c12.254,10.188,25.444,19.232,39.399,26.997c26.038,0,219.686,0,248.665,0
		c14.02-7.799,27.189-16.848,39.363-26.997C410.061,452.783,102.005,452.783,92.319,452.783z"/>
</g>
<g>
	<path style="fill:#BFA993;" d="M194.332,479.78c-3.838,0-6.949-3.112-6.949-6.949v-13.099c0-3.838,3.112-6.949,6.949-6.949
		c-12.742,0-90.399,0-102.012,0c12.254,10.188,25.444,19.232,39.399,26.997C144.321,479.78,172.673,479.78,194.332,479.78z"/>
	<path style="fill:#BFA993;" d="M131.719,479.78c45.958,25.571,100.173,37.271,156.352,30.176
		c33.445-4.224,64.555-14.734,92.314-30.176C351.447,479.78,157.965,479.78,131.719,479.78z"/>
</g>
<path style="fill:#AA927D;" d="M194.332,479.78c-21.817,0-50.082,0-62.614,0c17.477,9.725,36.143,17.448,55.664,22.888v-13.401
	C187.383,484.028,190.495,479.78,194.332,479.78z"/>
<g>
</g>
<g>
</g>
<g>
</g>
<g>
</g>
<g>
</g>
<g>
</g>
<g>
</g>
<g>
</g>
<g>
</g>
<g>
</g>
<g>
</g>
<g>
</g>
<g>
</g>
<g>
</g>
<g>
</g>
</svg>
