<?xml version="1.0" encoding="iso-8859-1"?>
<!-- Generator: Adobe Illustrator 19.0.0, SVG Export Plug-In . SVG Version: 6.00 Build 0)  -->
<svg version="1.1" id="Capa_1" xmlns="http://www.w3.org/2000/svg" xmlns:xlink="http://www.w3.org/1999/xlink" x="0px" y="0px"
	 viewBox="0 0 512 512" style="enable-background:new 0 0 512 512;" xml:space="preserve">
<path style="fill:#F9EED7;" d="M512,256c0,8.025-0.366,15.956-1.097,23.782c-1.034,11.254-2.8,22.309-5.245,33.092
	c-4.942,21.786-12.664,42.517-22.779,61.806c-2.048,3.918-4.201,7.774-6.457,11.567c-10.637,17.983-23.416,34.544-37.992,49.34
	c-17.659,17.941-37.951,33.29-60.238,45.422C341.88,500.767,300.251,512,256,512c-32.684,0-63.948-6.123-92.682-17.303
	c-4.786-1.849-9.498-3.845-14.127-5.977c-11.452-5.266-22.455-11.358-32.925-18.192c-19.508-12.727-37.177-28.056-52.506-45.484
	c-10.553-11.985-20.01-24.973-28.181-38.797c-4.127-6.959-7.931-14.137-11.389-21.504C13.437,341.88,5.977,317.168,2.414,291.213
	c-0.522-3.783-0.961-7.596-1.317-11.431C0.366,271.956,0,264.025,0,256c0-2.006,0.021-4.002,0.073-5.987
	c0.303-13.134,1.588-26.028,3.793-38.609c3.647-20.689,9.759-40.521,18.045-59.173c3.918-8.85,8.328-17.418,13.197-25.704
	C48.87,103.09,66.267,82.035,86.518,64.136c0.199-0.178,0.397-0.355,0.606-0.522c1.64-1.452,3.302-2.873,4.984-4.274
	c5.496-4.598,11.191-8.955,17.074-13.072c4.263-2.999,8.61-5.862,13.061-8.589c5.622-3.448,11.389-6.687,17.283-9.707
	c0.282-0.146,0.554-0.282,0.825-0.428c13.803-7.001,28.338-12.79,43.447-17.22C206.691,3.605,230.922,0,256,0
	c41.618,0,80.906,9.927,115.639,27.544c0.272,0.136,0.543,0.282,0.825,0.418c5.893,3.02,11.661,6.259,17.283,9.718
	c3.072,1.891,6.102,3.835,9.091,5.851l0.01,0.01c1.327,0.888,2.644,1.797,3.95,2.717c1.452,1.014,2.884,2.048,4.315,3.082l0.01,0.01
	c4.368,3.187,8.62,6.52,12.758,9.979c1.891,1.567,3.751,3.176,5.59,4.796c2.111,1.87,4.2,3.772,6.249,5.726
	c8.746,8.234,16.896,17.095,24.409,26.499c7.617,9.529,14.555,19.602,20.762,30.177c4.869,8.286,9.279,16.854,13.208,25.704
	c9.08,20.449,15.559,42.318,19.007,65.181c1.609,10.668,2.57,21.546,2.821,32.601C511.979,251.998,512,253.994,512,256z"/>
<g>
	<path style="fill:#FCF8F2;" d="M456.129,96.35c-0.627,0.094-1.275,0.146-1.933,0.146h-3.709c-3.678,0-7.011,1.494-9.415,3.908
		c-2.414,2.403-3.908,5.736-3.908,9.415c0,7.367-5.966,13.322-13.322,13.322H316.238c-3.678,0-7.011-1.484-9.415-3.897
		c-2.414-2.414-3.908-5.736-3.908-9.425c0-7.356,5.966-13.322,13.322-13.322h3.699c3.678,0,7.011-1.494,9.415-3.908
		c2.414-2.403,3.908-5.736,3.908-9.415c0-7.356-5.966-13.322-13.322-13.322h-36.31c-3.678,0-7.011-1.494-9.425-3.908
		c-2.403-2.403-3.897-5.736-3.897-9.415c0-7.356,5.966-13.322,13.322-13.322h112.274c1.014,0,1.996,0.115,2.936,0.324l0.01,0.01
		c3.459,0.773,6.405,2.905,8.265,5.799l0.01,0.01c1.327,2.069,2.1,4.535,2.1,7.178c0,7.356,5.966,13.322,13.322,13.322h9.174
		C440.466,78.085,448.616,86.946,456.129,96.35z"/>
	<path style="fill:#FCF8F2;" d="M257.755,76.936c0,7.356-5.966,13.322-13.322,13.322H117.864c-3.678,0-7.011-1.494-9.425-3.897
		c-2.403-2.414-3.897-5.747-3.897-9.425c0-7.356-5.966-13.322-13.322-13.322h-4.096c1.64-1.452,3.302-2.873,4.984-4.274
		c5.496-4.598,11.191-8.955,17.074-13.072c4.263-2.999,8.61-5.862,13.061-8.589c5.622-3.448,11.389-6.687,17.283-9.707
		c0.282-0.146,0.554-0.282,0.825-0.428c13.803-7.001,28.338-12.79,43.447-17.22h39.915c3.678,0,7.011,1.494,9.425,3.897
		c2.403,2.414,3.897,5.747,3.897,9.425c0,7.356-5.966,13.322-13.322,13.322h-42.935c-7.367,0-13.322,5.966-13.322,13.322
		s5.956,13.322,13.322,13.322h63.655c3.678,0,7.011,1.494,9.415,3.897C256.261,69.925,257.755,73.258,257.755,76.936z"/>
</g>
<path style="fill:#E8DBC4;" d="M512,256c0,8.025-0.366,15.956-1.097,23.782c-1.034,11.254-2.8,22.309-5.245,33.092
	c-4.942,21.786-12.664,42.517-22.779,61.806c-2.048,3.918-4.201,7.774-6.457,11.567H234.653c-2.581,0-4.671-2.1-4.671-4.681v-15.13
	l-8.714,17.241c-0.794,1.578-2.403,2.57-4.169,2.57H35.579c-4.127-6.959-7.931-14.137-11.389-21.504
	C13.437,341.88,5.977,317.168,2.414,291.213c-0.522-3.783-0.961-7.596-1.317-11.431C0.366,271.956,0,264.025,0,256
	c0-2.006,0.021-4.002,0.073-5.987c0.303-13.134,1.588-26.028,3.793-38.609h9.697c2.581,0,4.671-2.1,4.671-4.681v-26.049
	c0-2.581,2.09-4.681,4.681-4.681h14.023c2.581,0,4.681,2.1,4.681,4.681v46.759c0,2.581,2.09,4.681,4.671,4.681H56.31
	c2.581,0,4.681-2.1,4.681-4.681v-11.358c0-2.581,2.09-4.671,4.671-4.671H87.04c2.581,0,4.671,2.09,4.671,4.671v2.675
	c0,2.581,2.1,4.681,4.681,4.681h7.346c2.581,0,4.681,2.09,4.681,4.671v4.012c0,2.581,2.09,4.671,4.671,4.671h14.033
	c2.581,0,4.671-2.09,4.671-4.671v-28.056c0-2.591,2.1-4.681,4.681-4.681h12.027c2.581,0,4.671-2.09,4.671-4.671v-6.687
	c0-2.581,2.09-4.671,4.681-4.671h4.002c2.581,0,4.681,2.09,4.681,4.671v7.346c0,2.612,2.142,4.733,4.765,4.681
	c2.55-0.052,4.587,2.132,4.587,4.681v8.014c0,2.581,2.09,4.671,4.671,4.671h10.021c2.581,0,4.681,2.1,4.681,4.681v10.021
	c0,2.581,2.09,4.671,4.671,4.671h19.372c2.581,0,4.681-2.09,4.681-4.671v-37.407c0-2.591,2.09-4.681,4.671-4.681h5.35
	c2.581,0,4.671,2.09,4.671,4.681v38.86c0,2.884,2.341,5.224,5.235,5.224h10.23c2.894,0,5.235-2.341,5.235-5.224v-32.852
	c0-2.581,2.09-4.681,4.671-4.681h14.033c2.581,0,4.671,2.1,4.671,4.681v33.395c0,2.591,2.1,4.681,4.681,4.681h10.689
	c2.581,0,4.671-2.09,4.671-4.681v-18.035c0-2.581,2.09-4.671,4.681-4.671h28.724c2.581,0,4.671-2.1,4.671-4.681v-26.049
	c0-2.581,2.1-4.681,4.681-4.681h14.023c2.581,0,4.681,2.1,4.681,4.681v46.759c0,2.581,2.09,4.681,4.671,4.681h10.021
	c2.581,0,4.681-2.1,4.681-4.681v-11.358c0-2.581,2.09-4.671,4.671-4.671h21.379c2.581,0,4.681,2.09,4.681,4.671v2.675
	c0,2.581,2.09,4.681,4.671,4.681h7.346c2.591,0,4.681,2.09,4.681,4.671v4.012c0,2.581,2.09,4.671,4.671,4.671h14.033
	c2.581,0,4.671-2.09,4.671-4.671v-28.056c0-2.591,2.1-4.681,4.681-4.681h12.027c2.581,0,4.671-2.09,4.671-4.671v-6.687
	c0-2.581,2.1-4.671,4.681-4.671h4.002c2.591,0,4.681,2.09,4.681,4.671v7.346c0,1.296,0.522,2.466,1.369,3.312
	c0.846,0.846,2.006,1.369,3.302,1.369c2.591,0,4.681,2.09,4.681,4.681v8.014c0,2.581,2.09,4.671,4.671,4.671h5.914
	c1.609,10.668,2.57,21.546,2.821,32.601C511.979,251.998,512,253.994,512,256z"/>
<g>
	<rect x="175.804" y="123.058" style="fill:#FF525D;" width="16.718" height="141.051"/>
	<rect x="319.467" y="123.058" style="fill:#FF525D;" width="16.718" height="141.051"/>
	<rect x="247.641" y="154.927" style="fill:#FF525D;" width="16.718" height="109.192"/>
	<rect x="44.972" y="123.058" style="fill:#FF525D;" width="16.718" height="141.051"/>
	<rect x="450.299" y="123.058" style="fill:#FF525D;" width="16.718" height="141.051"/>
</g>
<path style="fill:#797B89;" d="M490.099,152.231c-8.088-2.905-15.809-6.572-23.082-10.909c-5.883-3.5-11.463-7.429-16.718-11.766
	c-12.089-9.947-22.413-21.974-30.417-35.516c-8.547-14.42-14.461-30.574-17.084-47.783c-0.585-3.783-1.003-7.607-1.254-11.483
	h-11.577c-0.063,0.972-0.136,1.933-0.219,2.905c-1.787,20.438-8.161,39.57-18.119,56.372c-9.091,15.381-21.18,28.808-35.443,39.455
	c-5.287,3.96-10.867,7.523-16.718,10.668c-16.593,8.944-35.276,14.493-55.108,15.705c-2.769,0.188-5.548,0.272-8.359,0.272
	c-2.811,0-5.59-0.084-8.359-0.272c-19.843-1.212-38.525-6.76-55.118-15.705c-5.851-3.145-11.431-6.719-16.718-10.679
	c-14.263-10.648-26.352-24.064-35.443-39.455c-9.947-16.792-16.332-35.934-18.119-56.362c-0.084-0.972-0.157-1.933-0.219-2.905
	h-11.578c-0.251,3.877-0.679,7.711-1.264,11.494c-2.623,17.209-8.537,33.353-17.074,47.773
	c-8.004,13.542-18.328,25.569-30.417,35.516c-5.256,4.336-10.846,8.276-16.718,11.766c-7.272,4.336-14.984,8.004-23.061,10.909
	c3.918-8.85,8.328-17.418,13.197-25.704C58.89,112.619,77.333,90.52,86.518,64.136c2.685-7.69,4.587-15.747,5.59-24.064
	c0.575-4.65,0.867-9.383,0.867-14.179c0-1.379,0.313-2.685,0.878-3.856c1.432-2.978,4.483-5.026,8.004-5.026h28.756
	c3.532,0,6.572,2.048,8.004,5.026c0.564,1.17,0.878,2.476,0.878,3.856c0,0.7,0.01,1.39,0.031,2.079
	c0.063,4.086,0.345,8.129,0.836,12.1c4.211,34.607,23.667,64.585,51.44,82.986c0.24,0.167,0.481,0.324,0.721,0.47
	c18.275,11.933,40.082,18.86,63.478,18.86s45.202-6.928,63.467-18.85c0.251-0.157,0.491-0.313,0.731-0.481
	c27.763-18.401,47.219-48.379,51.43-82.986c0.491-3.981,0.773-8.014,0.836-12.11c0.021-0.69,0.031-1.379,0.031-2.069
	c0-1.369,0.313-2.664,0.867-3.824c0-0.01,0-0.021,0.01-0.031c1.432-2.978,4.483-5.026,8.004-5.026h28.756
	c3.532,0,6.572,2.048,8.004,5.026c0.564,1.17,0.878,2.476,0.878,3.856c0,4.796,0.293,9.529,0.867,14.179
	c1.003,8.317,2.905,16.363,5.59,24.054c9.185,26.394,27.627,48.494,51.419,62.401C481.761,134.813,486.17,143.381,490.099,152.231z"
	/>
<path style="fill:#FF525D;" d="M140.364,264.897V27.974c0-6.057-4.91-10.967-10.967-10.967h-26.323
	c-6.057,0-10.967,4.91-10.967,10.967v236.923H140.364z"/>
<path style="fill:#EF4152;" d="M121.882,17.007h-18.808c-6.057,0-10.967,4.91-10.967,10.967v236.923h18.808V27.974
	C110.916,21.917,115.826,17.007,121.882,17.007z"/>
<path style="fill:#FF525D;" d="M419.886,264.897V27.974c0-6.057-4.91-10.967-10.967-10.967h-26.323
	c-6.057,0-10.967,4.91-10.967,10.967v236.923H419.886z"/>
<path style="fill:#34ABE0;" d="M505.657,312.874c-4.942,21.786-12.664,42.517-22.779,61.806
	c-11.776,22.476-26.802,42.987-44.45,60.907c-17.659,17.941-37.951,33.29-60.238,45.422C341.88,500.767,300.251,512,256,512
	c-32.684,0-63.948-6.123-92.682-17.303c-4.786-1.849-9.498-3.845-14.127-5.977c-11.452-5.266-22.455-11.358-32.925-18.192
	c-19.508-12.727-37.177-28.056-52.506-45.484c-15.872-18.025-29.247-38.306-39.57-60.301C13.437,341.88,5.977,317.168,2.414,291.213
	c1.327-0.293,2.738-0.449,4.284-0.449c19.613,0,19.613,25.704,39.236,25.704c19.613,0,19.613-25.704,39.225-25.704
	c19.623,0,19.623,25.704,39.236,25.704c19.623,0,19.623-25.704,39.236-25.704s19.613,25.704,39.236,25.704
	c19.613,0,19.613-25.704,39.236-25.704c19.613,0,19.613,25.704,39.225,25.704c19.623,0,19.623-25.704,39.236-25.704
	s19.613,25.704,39.236,25.704c19.613,0,19.613-25.704,39.236-25.704c19.613,0,19.613,25.704,39.236,25.704
	c19.623,0,19.623-25.704,39.246-25.704C492.523,290.764,496.044,305.81,505.657,312.874z"/>
<g>
	<path style="fill:#EF4152;" d="M401.404,17.007h-18.808c-6.057,0-10.967,4.91-10.967,10.967v236.923h18.808V27.974
		C390.437,21.917,395.347,17.007,401.404,17.007z"/>
	<path style="fill:#EF4152;" d="M140.361,269.834v123.58H92.108v-123.58c0-3.156,4.911-5.716,10.971-5.716H129.4
		C135.45,264.119,140.361,266.679,140.361,269.834z"/>
	<path style="fill:#EF4152;" d="M419.882,269.834v123.58h-48.253v-123.58c0-3.156,4.911-5.716,10.971-5.716h26.321
		C414.971,264.119,419.882,266.679,419.882,269.834z"/>
</g>
<g>
	<rect x="113.894" y="302.258" style="fill:#FF525D;" width="26.467" height="91.157"/>
	<rect x="392.359" y="302.258" style="fill:#FF525D;" width="27.523" height="91.157"/>
</g>
<path style="fill:#279FC9;" d="M482.879,374.679c-11.776,22.476-26.802,42.987-44.45,60.907
	c-17.659,17.941-37.951,33.29-60.238,45.422C341.88,500.767,300.251,512,256,512c-32.684,0-63.948-6.123-92.682-17.303
	c-4.786-1.849-9.498-3.845-14.127-5.977c-11.452-5.266-22.455-11.358-32.925-18.192c-19.508-12.727-37.177-28.056-52.506-45.484
	c-15.872-18.025-29.247-38.306-39.57-60.301c5.475-7.011,10.334-14.858,21.17-14.858c19.613,0,19.613,25.704,39.236,25.704
	c19.613,0,19.613-25.704,39.225-25.704c19.623,0,19.623,25.704,39.236,25.704c19.623,0,19.623-25.704,39.236-25.704
	s19.613,25.704,39.236,25.704c19.613,0,19.613-25.704,39.236-25.704c19.613,0,19.613,25.704,39.225,25.704
	c19.623,0,19.623-25.704,39.236-25.704s19.613,25.704,39.236,25.704c19.613,0,19.613-25.704,39.236-25.704
	c19.613,0,19.613,25.704,39.236,25.704C479.148,375.589,481.113,375.265,482.879,374.679z"/>
<path style="fill:#5C5E70;" d="M512,256c0,8.025-0.366,15.956-1.097,23.782H1.097C0.366,271.956,0,264.025,0,256
	c0-2.006,0.021-4.002,0.073-5.987h511.854C511.979,251.998,512,253.994,512,256z"/>
<path style="fill:#78CAEF;" d="M438.429,435.587c-17.659,17.941-37.951,33.29-60.238,45.422C341.88,500.767,300.251,512,256,512
	c-32.684,0-63.948-6.123-92.682-17.303c-4.786-1.849-9.498-3.845-14.127-5.977c-11.452-5.266-22.455-11.358-32.925-18.192
	c-19.508-12.727-37.177-28.056-52.506-45.484c5.58-7.095,10.407-15.161,21.4-15.161c19.623,0,19.623,25.704,39.236,25.704
	c19.623,0,19.623-25.704,39.236-25.704s19.613,25.704,39.236,25.704c19.613,0,19.613-25.704,39.236-25.704
	c19.613,0,19.613,25.704,39.225,25.704c19.623,0,19.623-25.704,39.236-25.704s19.613,25.704,39.236,25.704
	c19.613,0,19.613-25.704,39.236-25.704c19.613,0,19.613,25.704,39.236,25.704H438.429z"/>
<path style="fill:#279FC9;" d="M149.191,488.72c-11.452-5.266-22.455-11.358-32.925-18.192c2.173-0.961,4.65-1.526,7.555-1.526
	C137.3,469.002,141.521,481.134,149.191,488.72z"/>
<path style="fill:#34ABE0;" d="M256,512c-32.684,0-63.948-6.123-92.682-17.303c19.362-0.219,19.446-25.694,38.975-25.694
	c19.613,0,19.613,25.704,39.236,25.704c19.613,0,19.613-25.704,39.236-25.704c19.613,0,19.613,25.704,39.225,25.704
	c19.623,0,19.623-25.704,39.236-25.704c9.383,0,14.273,5.872,18.965,12.006C341.88,500.767,300.251,512,256,512z"/>
<g>
	<path style="fill:#FF6E7C;" d="M407.162,106.514L407.162,106.514c-3.847,0-6.966-3.119-6.966-6.966V39.64
		c0-3.847,3.119-6.966,6.966-6.966l0,0c3.847,0,6.966,3.119,6.966,6.966v59.907C414.128,103.395,411.01,106.514,407.162,106.514z"/>
	<path style="fill:#FF6E7C;" d="M126.433,106.514L126.433,106.514c-3.847,0-6.966-3.119-6.966-6.966V39.64
		c0-3.847,3.119-6.966,6.966-6.966l0,0c3.847,0,6.966,3.119,6.966,6.966v59.907C133.399,103.395,130.28,106.514,126.433,106.514z"/>
</g>
<g>
</g>
<g>
</g>
<g>
</g>
<g>
</g>
<g>
</g>
<g>
</g>
<g>
</g>
<g>
</g>
<g>
</g>
<g>
</g>
<g>
</g>
<g>
</g>
<g>
</g>
<g>
</g>
<g>
</g>
</svg>
