<svg id="Layer_3" enable-background="new 0 0 64 64" height="512" viewBox="0 0 64 64" width="512" xmlns="http://www.w3.org/2000/svg"><path d="m40 62v-29h2v-10l3-2h5l4-3v-4h-10v-2h-8v-6c0-2.209-1.791-4-4-4-2.209 0-4 1.791-4 4v6h-8v2h-10v4l4 3h5l3 2v10h4v29" fill="#4d5d7a"/><path d="m36 8.77c-.692-2.328-1.551-4.501-2.548-6.488-.451-.177-.938-.282-1.452-.282-2.209 0-4 1.791-4 4v6h-8v2h-10v4l4 3h5l3 2v10h4v20.028c7.078-5.201 12-16.685 12-30.028 0-3.858-.415-7.559-1.171-11h-.829z" fill="#8892a0"/><path d="m10 14h-8v2c0 1.105.895 2 2 2h6" fill="#c7e2fc"/><path d="m54 14h8v2c0 1.105-.895 2-2 2h-6" fill="#c7e2fc"/><path d="m25 21h2v41h-2z" fill="#4d5d7a"/><path d="m29 43h2v19h-2z" fill="#8892a0"/><path d="m35 47h2v15h-2z" fill="#8892a0"/><path d="m37 39v-24h-2v20.129l-4-9.333v-4.796h-2v13h2v-3.128l4.081 9.522c.157.368.519.606.919.606h4v-2z" fill="#4d5d7a"/></svg>