<?xml version="1.0" encoding="iso-8859-1"?>
<!-- Generator: Adobe Illustrator 19.0.0, SVG Export Plug-In . SVG Version: 6.00 Build 0)  -->
<svg version="1.1" id="Layer_1" xmlns="http://www.w3.org/2000/svg" xmlns:xlink="http://www.w3.org/1999/xlink" x="0px" y="0px"
	 viewBox="0 0 474.637 474.637" style="enable-background:new 0 0 474.637 474.637;" xml:space="preserve">
<g>
	<g>
		<path style="fill:#F9C83E;" d="M179.828,166.883c-9.862,0-17.588-11.167-17.588-25.423c0-14.256,7.726-25.423,17.588-25.423
			s17.588,11.167,17.588,25.423C197.416,155.715,189.69,166.883,179.828,166.883z M179.828,121.036
			c-6.823,0-12.588,9.353-12.588,20.423s5.765,20.423,12.588,20.423s12.588-9.352,12.588-20.423S186.651,121.036,179.828,121.036z"
			/>
		<path style="fill:#F9C83E;" d="M294.808,166.883c-9.862,0-17.588-11.167-17.588-25.423c0-14.256,7.726-25.423,17.588-25.423
			s17.587,11.167,17.587,25.423C312.395,155.715,304.671,166.883,294.808,166.883z M294.808,121.036
			c-6.823,0-12.588,9.353-12.588,20.423s5.765,20.423,12.588,20.423s12.587-9.352,12.587-20.423S301.632,121.036,294.808,121.036z"
			/>
	</g>
	<ellipse style="fill:#F9C83E;" cx="237.318" cy="72.92" rx="79.84" ry="68.92"/>
	<path style="fill:#E8B980;" d="M298.193,114.93c0,2.88-0.2,5.65-0.59,8.3c-0.02,0.13-0.04,0.26-0.06,0.39
		c-3.87,25.2-24.71,39.92-51.1,42.64c-2.97,0.32-6.02,0.47-9.12,0.47c-3.1,0-6.15-0.16-9.13-0.47c-1.49-0.15-2.97-0.34-4.42-0.57
		c-24.08-3.81-42.74-18.07-46.59-41.52c-0.49-2.94-0.74-6.02-0.74-9.24c0-3.24,0.25-6.53,0.74-9.83
		c2.09-14.21,8.51-28.65,17.78-40.13c16.6-8.51,41.67-7.71,42.41-23.02h0.04c0.74,15.24,25.57,14.52,42.16,22.89
		c9.56,11.8,16.11,26.75,18.03,41.36C297.993,109.13,298.193,112.05,298.193,114.93z"/>
	<path style="fill:#FFFFFF;" d="M249.276,113.041c0,9.697-5.352,17.557-11.954,17.557c-6.602,0-11.954-7.861-11.954-17.557
		C225.368,113.041,249.276,113.041,249.276,113.041z"/>
	<g>
		<path d="M216.972,106.503c0,0-0.303-0.04-0.778-0.17c-0.234-0.078-0.532-0.14-0.829-0.189c-0.299-0.06-0.603-0.132-0.969-0.186
			c-0.345-0.076-0.715-0.135-1.097-0.184c-0.368-0.082-0.776-0.08-1.158-0.154c-0.403-0.01-0.794-0.077-1.2-0.08
			c-0.401-0.034-0.808-0.022-1.213-0.038c-0.405,0.017-0.811,0.008-1.212,0.041c-0.406,0.007-0.797,0.069-1.199,0.082
			c-0.382,0.074-0.79,0.073-1.157,0.155c-0.382,0.048-0.752,0.107-1.097,0.183c-0.361,0.049-0.683,0.133-0.987,0.198
			c-0.309,0.06-0.594,0.111-0.817,0.178c-0.461,0.116-0.775,0.164-0.775,0.164s0.059-0.289,0.251-0.763
			c0.092-0.242,0.22-0.528,0.416-0.818c0.187-0.301,0.415-0.637,0.719-0.948c0.148-0.161,0.311-0.322,0.481-0.492
			c0.18-0.151,0.376-0.296,0.578-0.452c0.401-0.321,0.882-0.551,1.382-0.808c0.517-0.196,1.06-0.427,1.642-0.519
			c0.574-0.15,1.177-0.162,1.776-0.201c0.599,0.039,1.201,0.054,1.776,0.204c0.581,0.096,1.125,0.322,1.641,0.521
			c0.499,0.257,0.981,0.488,1.381,0.808c0.202,0.156,0.398,0.3,0.578,0.452c0.17,0.17,0.334,0.329,0.481,0.491
			c0.299,0.306,0.545,0.654,0.737,0.96c0.208,0.3,0.323,0.576,0.404,0.807C216.902,106.206,216.972,106.503,216.972,106.503z"/>
		<path d="M272.163,106.503c0,0-0.303-0.04-0.778-0.17c-0.234-0.078-0.532-0.14-0.829-0.189c-0.299-0.06-0.603-0.132-0.969-0.186
			c-0.345-0.076-0.715-0.135-1.097-0.184c-0.368-0.082-0.776-0.08-1.158-0.154c-0.403-0.01-0.794-0.077-1.2-0.08
			c-0.401-0.034-0.808-0.022-1.213-0.038c-0.405,0.017-0.811,0.008-1.212,0.041c-0.406,0.007-0.797,0.069-1.199,0.082
			c-0.382,0.074-0.79,0.073-1.157,0.155c-0.382,0.048-0.751,0.107-1.096,0.183c-0.361,0.049-0.683,0.133-0.987,0.198
			c-0.309,0.06-0.594,0.111-0.817,0.178c-0.461,0.116-0.775,0.164-0.775,0.164s0.059-0.289,0.251-0.763
			c0.092-0.242,0.22-0.528,0.416-0.818c0.187-0.301,0.415-0.637,0.719-0.948c0.148-0.161,0.311-0.322,0.481-0.492
			c0.18-0.151,0.376-0.296,0.578-0.452c0.401-0.321,0.882-0.551,1.382-0.808c0.517-0.196,1.06-0.427,1.642-0.519
			c0.574-0.15,1.177-0.162,1.776-0.201c0.599,0.039,1.201,0.054,1.776,0.204c0.581,0.096,1.125,0.322,1.641,0.521
			c0.499,0.257,0.981,0.488,1.381,0.808c0.202,0.156,0.398,0.3,0.578,0.452c0.17,0.17,0.334,0.329,0.481,0.491
			c0.299,0.306,0.545,0.654,0.737,0.96c0.208,0.3,0.323,0.576,0.404,0.807C272.092,106.206,272.163,106.503,272.163,106.503z"/>
	</g>
	<path style="fill:#E8B980;" d="M339.523,276.739c0.13,8.6-0.8,16.97-2.67,24.97c-0.66,2.81-4.79,2.34-4.79-0.55v-0.22
		c0-24.23-9.09-46.34-24.06-63.08c-6.96-7.8-15.19-14.43-24.36-19.57c-13.7-7.7-29.49-12.09-46.32-12.09
		c-16.82,0-32.63,4.39-46.32,12.08c-9.18,5.15-17.4,11.78-24.37,19.57c-14.96,16.75-24.06,38.86-24.06,63.09v0.22
		c0.01,2.88-4.11,3.42-4.77,0.61c-1.76-7.52-2.7-15.36-2.7-23.42c0-20.5,6.04-39.59,16.44-55.59
		c14.63-22.55,37.92-38.96,65.15-44.54c1.95-0.4,3.75-1.18,5.33-2.27c3.05-2.09,5.26-5.3,6.04-9.05l0.13-0.64
		c2.98,0.31,6.03,0.47,9.13,0.47s6.15-0.15,9.12-0.47l0.16,0.76c0.78,3.72,2.95,6.91,5.95,8.99c1.57,1.1,3.36,1.89,5.3,2.31
		c26.68,5.74,50.02,22.41,64.85,44.84C333.033,238.799,339.223,257.239,339.523,276.739z"/>
	<path style="fill:#FCCF92;" d="M264.882,450.489c-2.56,7.25-5.42,14.57-8.6,21.91c-1.47,3.4-6.47,2.78-7.08-0.87
		c-0.92-5.54-2.05-12.75-3.2-21.04c-4.44-31.92-9.26-79.89-3.69-110.55h-9.98c5.57,30.66,0.75,78.63-3.7,110.55
		c-1.15,8.29-2.28,15.5-3.2,21.04c-0.6,3.65-5.6,4.27-7.07,0.87c-3.18-7.34-6.04-14.66-8.6-21.91
		c-26.2-73.98-22.13-140.44-22.13-140.44c0-12.94,5.58-24.57,14.45-32.63c5.64-5.12,8.85-12.38,8.85-19.99v-11.12
		c-11.28-1.68-19.93-11.38-19.93-23.12v-22.17h92.64v22.17c0,11.74-8.66,21.44-19.93,23.12v11.12c0,7.61,3.21,14.87,8.84,19.99
		c8.88,8.06,14.45,19.69,14.45,32.63C287.003,310.049,291.082,376.509,264.882,450.489z"/>
	<path style="opacity:0.29;fill:#4D4D4D;enable-background:new    ;" d="M250.525,174.155c-4.07,1.53-8.47,2.36-13.07,2.36
		c-4.62,0-9.05-0.84-13.14-2.38c1.93-1.95,3.3-4.45,3.88-7.24l0.13-0.64c2.98,0.31,6.03,0.47,9.13,0.47s6.15-0.15,9.12-0.47
		l0.16,0.76C247.305,169.765,248.645,172.215,250.525,174.155z"/>
	<path style="fill:#39B54A;" d="M305.872,358.379v94.17h-137.11v-93.84c0-7.49,0.69-14.91,2.03-22.16c0.8-4.33,1.82-8.6,3.08-12.8
		c6.31-21.21,18.34-40.54,35.06-55.71h57.14l0.04,0.04c16.59,15.19,28.51,34.49,34.75,55.65c1.24,4.21,2.26,8.48,3.04,12.82
		C305.203,343.699,305.872,351.009,305.872,358.379z"/>
	<path style="fill:#BE121A;" d="M210.495,452.549h17.85c-1.05,7.43-2.07,13.91-2.91,18.98c-0.6,3.65-5.6,4.27-7.07,0.87
		C215.485,465.749,212.865,459.129,210.495,452.549z"/>
	<path style="fill:#BE121A;" d="M264.155,452.549c-2.37,6.58-4.99,13.2-7.87,19.85c-1.47,3.4-6.47,2.78-7.08-0.87
		c-0.84-5.07-1.86-11.55-2.91-18.98H264.155z"/>
	<path style="fill:#E6E6E6;" d="M300.862,323.729c-18.75,4.66-40.44,7.32-63.54,7.32c-23.06,0-44.71-2.65-63.45-7.3
		c3.74-12.55,9.47-24.45,17-35.21c5.19-7.42,11.23-14.3,18.05-20.49l0.01-0.01h57.14l0.01,0.01l0.03,0.03
		c6.75,6.18,12.74,13.06,17.88,20.46C291.473,299.299,297.163,311.189,300.862,323.729z"/>
	<g>
		<path style="fill:#39B54A;" d="M233.882,324.079c0-1.94,1.57-3.5,3.5-3.5l0,0c1.93,0,3.5,1.56,3.5,3.5l0,0
			c0,1.93-1.57,3.49-3.5,3.49l0,0C235.452,327.579,233.882,326.009,233.882,324.079z M224.422,327.299
			c-1.93-0.08-3.43-1.72-3.35-3.65l0,0c0.08-1.93,1.72-3.43,3.649-3.34l0,0c1.931,0.08,3.431,1.71,3.34,3.64l0,0
			c-0.08,1.88-1.63,3.35-3.489,3.35l0,0C224.522,327.299,224.472,327.299,224.422,327.299z M246.693,323.949
			c-0.091-1.93,1.409-3.56,3.34-3.65h0.01c1.93-0.08,3.56,1.42,3.64,3.35l0,0c0.09,1.93-1.41,3.56-3.34,3.65l0,0l0,0l0,0
			c-0.05,0-0.1,0-0.149,0l0,0C248.323,327.299,246.772,325.829,246.693,323.949z M211.472,326.458c-1.93-0.17-3.35-1.87-3.18-3.8
			l0,0c0.17-1.92,1.87-3.35,3.8-3.18l0,0c1.92,0.17,3.34,1.87,3.17,3.8l0,0c-0.16,1.82-1.689,3.19-3.48,3.19l0,0
			C211.682,326.469,211.573,326.469,211.472,326.458z M259.492,323.268c-0.181-1.93,1.25-3.63,3.17-3.8l0,0
			c1.93-0.17,3.63,1.26,3.8,3.18l0,0c0.17,1.93-1.26,3.63-3.18,3.79l0,0l0,0l0,0c-0.11,0.01-0.21,0.02-0.311,0.02l0,0
			C261.172,326.458,259.653,325.089,259.492,323.268z M198.582,325.018c-1.92-0.26-3.26-2.03-3-3.94l0,0
			c0.26-1.92,2.02-3.26,3.939-3l0,0c1.91,0.26,3.261,2.02,2.99,3.94l0,0c-0.23,1.75-1.74,3.03-3.46,3.03l0,0
			C198.892,325.049,198.742,325.039,198.582,325.018z M272.232,322.009c-0.26-1.92,1.08-3.68,3-3.95l0,0
			c1.91-0.26,3.681,1.08,3.94,3l0,0c0.26,1.92-1.08,3.68-3,3.94l0,0c-0.16,0.02-0.32,0.03-0.48,0.03l0,0
			C273.972,325.029,272.472,323.759,272.232,322.009z M185.752,322.938c-1.9-0.36-3.15-2.19-2.79-4.09l0,0
			c0.36-1.9,2.19-3.15,4.09-2.79l0,0c1.9,0.36,3.15,2.19,2.79,4.09l0,0c-0.32,1.68-1.79,2.85-3.439,2.85l0,0
			C186.193,322.999,185.972,322.978,185.752,322.938z M284.912,320.129c-0.36-1.9,0.88-3.73,2.78-4.08h0.01
			c1.899-0.36,3.729,0.88,4.08,2.78l0,0c0.359,1.9-0.891,3.73-2.79,4.09l0,0c0,0,0,0,0.01,0l0,0c-0.22,0.05-0.44,0.07-0.66,0.07l0,0
			C286.693,322.978,285.222,321.809,284.912,320.129z"/>
	</g>
	<path style="opacity:0.29;fill:#4D4D4D;enable-background:new    ;" d="M283.993,288.539L283.993,288.539
		c-30.501-8.182-62.619-8.182-93.12,0l0,0c5.19-7.42,11.23-14.3,18.05-20.49h57.16l0.03,0.03
		C272.862,274.259,278.852,281.139,283.993,288.539z"/>
	<path style="fill:#E6E6E6;" d="M322.703,223.159l-14.7,14.7c-6.96-7.8-15.19-14.43-24.36-19.57v4.9c0,11.74-8.66,21.44-19.93,23.12
		v6.41h-52.78v-6.41c-11.28-1.68-19.93-11.38-19.93-23.12v-4.91c-9.18,5.15-17.4,11.78-24.37,19.57l-15.09-15.09
		c12.92-19.91,32.58-35.03,55.75-42.14c1.65-0.51,3.32-0.97,5-1.39c1.45-0.37,2.92-0.71,4.4-1.01c1.95-0.4,3.75-1.18,5.33-2.27
		l15.3,15.43l15.23-15.37c1.57,1.1,3.36,1.89,5.3,2.31c1.38,0.3,2.75,0.62,4.1,0.98c1.69,0.43,3.35,0.91,5,1.44
		C289.813,187.989,309.582,203.319,322.703,223.159z"/>
	<rect x="208.933" y="243.382" style="fill:#EAB83B;" width="57.18" height="24.697"/>
	<path style="fill:#F9C83E;" d="M260.682,285.319l-7.7,29.67l-15.46-18.7l-15.46,18.7l-7.7-29.67c-0.4-1.53-0.55-3.08-0.48-4.6
		c0.13-3.14,1.21-6.17,3.09-8.68c1.11-1.5,2.5-2.81,4.14-3.86c5.16-3.28,11.49-3.16,16.41-0.24c4.92-2.92,11.25-3.04,16.41,0.24
		c1.64,1.05,3.03,2.36,4.14,3.86c1.88,2.51,2.96,5.54,3.09,8.68C261.233,282.239,261.082,283.789,260.682,285.319z"/>
	<path style="fill:#F9C83E;" d="M243.84,240.049h-12.635c-2.586,0-4.683,2.096-4.683,4.683v19.301c0,2.586,2.096,4.683,4.683,4.683
		h12.635c2.586,0,4.683-2.096,4.683-4.683v-19.301C248.523,242.145,246.426,240.049,243.84,240.049z"/>
	<rect x="168.762" y="433.382" style="fill:#E6E6E6;" width="137.11" height="19.167"/>
	<path style="fill:#BE121A;" d="M261.953,179.299v8.75c0,13.69-11.14,24.83-24.83,24.83s-24.83-11.14-24.83-24.83v-8.82
		c-1.68,0.42-3.35,0.88-5,1.39v7.43c0,16.45,13.38,29.83,29.83,29.83s29.83-13.38,29.83-29.83v-7.31
		C265.303,180.209,263.643,179.729,261.953,179.299z"/>
	<path style="fill:#39B54A;" d="M237.463,39.75c-0.05,0.51-0.07,1.01-0.07,1.49c0-0.48-0.02-0.98-0.07-1.49H237.463z"/>
	<path style="fill:#E6E6E6;" d="M237.318,0L237.318,0c-11.046,0-20,8.954-20,20v40h40V20C257.318,8.954,248.363,0,237.318,0z"/>
	<g>
		<path style="fill:#E6E6E6;" d="M205.149,68.272L192.421,81l-32.299-32.299c-3.515-3.515-3.515-9.213,0-12.728l0,0
			c3.515-3.515,9.213-3.515,12.728,0L205.149,68.272z"/>
		<path style="fill:#E6E6E6;" d="M269.486,68.272L282.214,81l32.299-32.299c3.515-3.515,3.515-9.213,0-12.728l0,0
			c-3.515-3.515-9.213-3.515-12.728,0L269.486,68.272z"/>
	</g>
	<path style="fill:#39B54A;" d="M297.602,101.92c1.719,9.918,0,22.25,0,22.25s-0.02-0.19-0.06-0.55
		c-0.41-3.68-3.11-25.02-11.12-32.02c-15.59-13.64-49.03-9.77-49.03-28.11c0-0.48,0.02-0.98,0.07-1.49h-0.14
		c0.05,0.51,0.07,1.01,0.07,1.49c0,18.34-33.44,14.47-49.03,28.11c-8.78,7.67-11.18,32.57-11.18,32.57s-2.486-11.832,0-22.25
		c0.239-2.039,2.4-24.89,11.18-32.57c1.95-1.71,4.19-3.14,6.6-4.38c16.6-8.51,41.67-7.71,42.41-23.02c0.01-0.23,0.02-0.47,0.02-0.71
		c0,0.24,0.01,0.48,0.02,0.71c0.74,15.24,25.57,14.52,42.16,22.89c2.51,1.27,4.83,2.74,6.85,4.51
		C295.203,77.03,297.012,98.502,297.602,101.92z"/>
</g>
<g>
</g>
<g>
</g>
<g>
</g>
<g>
</g>
<g>
</g>
<g>
</g>
<g>
</g>
<g>
</g>
<g>
</g>
<g>
</g>
<g>
</g>
<g>
</g>
<g>
</g>
<g>
</g>
<g>
</g>
</svg>
