<svg id="Layer_1" enable-background="new 0 0 512 512" height="512" viewBox="0 0 512 512" width="512" xmlns="http://www.w3.org/2000/svg"><path d="m248.06 497h-22.43v-86.667c0-4.142-3.357-7.5-7.5-7.5s-7.5 3.358-7.5 7.5v86.667h-13.902c-4.143 0-7.5 3.358-7.5 7.5s3.357 7.5 7.5 7.5h51.333c4.143 0 7.5-3.358 7.5-7.5s-3.358-7.5-7.501-7.5z" fill="#f0a70a"/><path d="m329.727 497h-22.431v-86.667c0-4.142-3.357-7.5-7.5-7.5s-7.5 3.358-7.5 7.5v86.667h-13.902c-4.143 0-7.5 3.358-7.5 7.5s3.357 7.5 7.5 7.5h51.333c4.143 0 7.5-3.358 7.5-7.5s-3.357-7.5-7.5-7.5z" fill="#f0a70a"/><path d="m463.203 107h-32.3c-14.08 0-25.29 11.52-25.23 25.6v.27s10.03 32.03 13.74 76.16c4.71 55.71-.63 130.7-48.86 184.87-26.81 30.13-65.39 49.77-108.88 49.77h-12c-60.07 0-111.55-36.78-133.14-89.05-7-16.93-10.86-35.49-10.86-54.95l90.25-69.84 45.86-35.49c16.38-12.68 26.91-31.28 29.51-51.56.43-3.26.64-6.57.64-9.91 0-14.39 4.55-27.71 12.28-38.62 7.74-10.91 18.66-19.39 31.41-24.11 2.32-.86 3.7-3.23 3.42-5.68-3.57-31.31 21.52-58.12 52.76-56.92 33.78 1.3 57.63 35.27 46.23 67.87-.62 1.78.15 3.75 1.85 4.58l44.56 21.59c2.73 1.321 1.79 5.42-1.24 5.42z" fill="#f87b67"/><path d="m354.043 64.461c.28 2.45-1.1 4.82-3.42 5.68-12.75 4.72-23.67 13.2-31.41 24.11-7.73 10.91-12.28 24.23-12.28 38.62 0 3.34-.21 6.65-.64 9.91-2.6 20.28-13.13 38.88-29.51 51.56-4.09 3.16-26.68 20.65-54.52 42.19-51.01 39.47-119.6 92.54-124.18 96.09-14.44 11.18-20.04 29.55-15.66 46.16l-21.32 16.5c-1.84 1.42-4.48 1.08-5.9-.75-14.92-19.27-11.39-46.99 7.88-61.91 9.447-7.311 171.409-132.634 178.7-138.28 16.38-12.68 26.91-31.28 29.51-51.56.43-3.26.64-6.57.64-9.91 0-14.39 4.55-27.71 12.28-38.62 7.74-10.91 18.66-19.39 31.41-24.11 2.32-.86 3.7-3.23 3.42-5.68-3.57-31.31 21.52-58.12 52.76-56.92 5.45.21 10.64 1.27 15.46 3.04-21.38 7.81-36 29.479-33.22 53.88z" fill="#f76c57"/><path d="m419.413 209.031c-79.01 63.96-220.29 21.97-220.29 21.97l-3.2-1.17-90.25 69.84c0 19.46 3.86 38.02 10.86 54.95 21.59 52.27 73.07 89.05 133.14 89.05h12c43.49 0 82.07-19.64 108.88-49.77 48.23-54.171 53.57-129.161 48.86-184.87z" fill="#766d78"/><path d="m199.123 231-3.2-1.17-85.707 66.324-47.135 36.47c-19.269 14.919-22.795 42.635-7.875 61.904 1.421 1.835 4.06 2.171 5.896.75l53.628-41.502c.56-.433 1.377-.211 1.642.446.054.133.108.266.162.398l3.94 1.12s142.65 42.59 183.98-106.07l.64-5.21c-56.651 1.2-105.971-13.46-105.971-13.46z" fill="#544f56"/><path d="m222.263 236.531c-51.01 39.47-119.6 92.54-124.18 96.09-14.44 11.18-20.04 29.55-15.66 46.16l-21.32 16.5c-1.84 1.42-4.48 1.08-5.9-.75-14.92-19.27-11.39-46.99 7.88-61.91l47.13-36.47c66.553-51.489 85.71-66.32 85.71-66.32 7.159 2.617 19.296 5.264 26.34 6.7z" fill="#444145"/><path d="m222.263 236.531c-51.01 39.47-119.6 92.54-124.18 96.09-14.44 11.18-20.04 29.55-15.66 46.16l-21.32 16.5c-1.84 1.42-4.48 1.08-5.9-.75-14.92-19.27-11.39-46.99 7.88-61.91l47.13-36.47c66.553-51.489 85.71-66.32 85.71-66.32 7.159 2.617 19.296 5.264 26.34 6.7z" fill="#444145"/><path d="m407.115 330.721c-3.866-1.493-8.206.43-9.698 4.294-25.101 64.992-78.456 101.157-135.748 101.157h-12c-51.337 0-96.138-28.491-119.441-70.488 36.251 6.851 76.564 3.606 109.816-14.764 34.512-19.066 58.606-52.43 71.616-99.165 13.159-.555 25.718-1.947 37.475-4.163 4.07-.767 6.749-4.688 5.981-8.759-.767-4.071-4.696-6.747-8.759-5.981-42.725 8.051-92.488 3.598-134.073-6.207l34.084-26.378c13.507-10.452 23.466-24.554 28.803-40.783 1.294-3.935-.848-8.174-4.782-9.467-3.936-1.293-8.174.848-9.468 4.782-4.396 13.373-12.604 24.993-23.732 33.606-.43.333-37.746 29.216-178.698 138.287-22.767 17.637-26.55 50.03-9.213 72.437 3.953 5.094 11.316 6.021 16.415 2.084l47.166-36.499c18.923 39.642 54.578 69.82 97.771 81.349v50.937h-13.902c-4.143 0-7.5 3.358-7.5 7.5s3.357 7.5 7.5 7.5h51.333c4.143 0 7.5-3.358 7.5-7.5s-3.357-7.5-7.5-7.5h-22.431v-47.743c16.901 2.706 45.341 3.197 66.667-1.309v49.052h-13.902c-4.143 0-7.5 3.358-7.5 7.5s3.357 7.5 7.5 7.5h51.333c4.143 0 7.5-3.358 7.5-7.5s-3.357-7.5-7.5-7.5h-22.431v-53.04c49.254-15.84 85.139-54.416 104.112-103.541 1.492-3.864-.43-8.206-4.294-9.698zm-347.883 56.524c-10.045-15.637-6.841-36.854 8.44-48.692l31.214-24.153c1.21 12.489 3.946 24.536 8.013 35.958zm53.985-83.931c27.648-21.397 49.808-38.546 84.045-65.043 4.182 1.219 47.093 13.365 98.706 13.75-25.406 84.748-91.99 115.567-173.787 96.426-5.405-14.08-8.547-29.272-8.964-45.133z"/><path d="m467.718 94.835-41.586-20.155c10.658-37.352-17.633-74.68-56.342-74.68-34.063 0-61.342 29.202-58.36 63.718-26.266 10.402-44.552 35.049-46.767 63.258-.325 4.129 2.76 7.74 6.89 8.064 4.129.324 7.739-2.761 8.063-6.89 1.804-22.965 16.96-42.974 38.61-50.974 5.502-2.032 8.948-7.673 8.267-13.568-3.045-26.69 18.429-49.625 45.024-48.575 28.762 1.106 49.164 30.011 39.437 57.909-1.841 5.292.415 11.253 5.661 13.794l26.337 12.764h-12.051c-17.58 0-32.776 14.232-32.727 33.37 0 .758.116 1.514.342 2.238.116.372 9.187 29.847 13.059 70.505-10.791 8.16-23.332 14.83-37.38 19.82-9.246 3.284-4.442 17.5 5.02 14.135 12.259-4.354 23.508-9.901 33.63-16.52 1.39 27.832-.306 56.823-6.871 84.286-.964 4.029 1.521 8.075 5.55 9.039 4.04.965 8.078-1.533 9.038-5.55 13.936-58.28 7.318-129.699-7.375-179.026.36-9.599 8.168-17.296 17.715-17.296h32.303c11.109-.001 14.274-14.935 4.513-19.666z"/><ellipse cx="341.322" cy="100.937" rx="13.801" ry="13.801" transform="matrix(.987 -.16 .16 .987 -11.761 55.977)"/></svg>