<svg id="Layer_1" enable-background="new 0 0 512 512" height="512" viewBox="0 0 512 512" width="512" xmlns="http://www.w3.org/2000/svg"><path d="m343.544 199.624c-1.506-3.469-6.507-3.254-7.717.328l-15.421 45.659c-.156.462-.819.418-.913-.06-.914-4.631-4.722-17.898-20.461-42.622-1.88-2.953-6.348-2.418-7.447.906-5.461 16.515-17.978 55.593 5.914 99.493l42.376-.665c.002.001 31.814-38.211 3.669-103.039z" fill="#f76c57"/><path d="m332.208 302.787-34.71.54c-23.89-43.9-11.37-82.98-5.91-99.489 1.1-3.33 5.56-3.86 7.44-.91 12.78 20.08 17.7 32.6 19.59 39.08 0 0-.01 0 0 .01-1.04 17.44 1.59 38.469 13.59 60.769z" fill="#e5554e"/><path d="m218.957 324.015c-1.733-24.224-16.97-45.07-39.068-55.143-2.278-1.038-4.71-2.451-7.362-4.397-17.682-12.974-8.681-34.247-30.306-37.905-23.632-3.998-22.615 19.092-45.803 25.152s-34.418-15.136-52.457.646c-15.372 13.449 4.726 26.504-1.313 46.015s-27.814 17.711-25.061 37.949c2.931 21.546 23.55 14.278 34.778 32.9 1.684 2.793 2.858 5.323 3.676 7.667 7.897 22.645 27.189 39.393 50.915 42.894l7.922 1.169c18.895 2.788 38.061-2.851 52.436-15.427l29.679-25.966c15.375-13.451 23.554-33.332 22.096-53.708z" fill="#24d3b5"/><path d="m140.709 419.587c-8.34 2.15-17.11 2.66-25.83 1.38l-7.92-1.17c-23.73-3.5-43.02-20.25-50.92-42.9-.82-2.34-1.99-4.87-3.67-7.66-11.23-18.63-31.85-11.36-34.78-32.9-2.76-20.24 19.02-18.44 25.06-37.95s-14.06-32.57 1.31-46.02c13.06-11.43 22.55-3.46 35.6-.51-.2.16-.4.33-.6.51-15.37 13.45 4.73 26.51-1.31 46.02s-27.82 17.71-25.06 37.95c2.93 21.54 23.55 14.27 34.78 32.9 1.68 2.79 2.85 5.32 3.67 7.66 7.76 22.25 26.51 38.81 49.67 42.69z" fill="#20b7a1"/><path d="m312.332 354.33-25.061-9.444-80.606-23.402c-13.46-3.908-27.855 1.825-34.943 13.917l-22 37.529-16.056 34.733h184.666z" fill="#e5646e"/><path d="m217.419 324.607c-4.31 2.57-8.03 6.23-10.7 10.79l-22 37.53-16.05 34.74h-35l16.05-34.74 22-37.53c7.09-12.09 21.49-17.82 34.95-13.91z" fill="#e04955"/><path d="m386.258 147.078h-262.749c-4.19 0-7.53-3.53-7.3-7.71 4.01-73.12 64.56-131.179 138.679-131.179 74.11 0 134.669 58.06 138.669 131.179.231 4.18-3.099 7.71-7.299 7.71z" fill="#ffe5a0"/><path d="m151.209 139.368c-.23 4.18 3.11 7.71 7.3 7.71h-35c-4.19 0-7.53-3.53-7.3-7.71 4.01-73.12 64.56-131.179 138.679-131.179 5.93 0 11.77.37 17.5 1.09-65.939 8.29-117.489 62.82-121.179 130.089z" fill="#ffdd81"/><path d="m358.718 147.078h-207.659c0-25.97 9.58-49.75 25.4-67.98 3.29-3.78 6.84-7.33 10.63-10.6 16.43-14.19 37.35-23.34 60.3-24.98 2.48-.18 4.97-.27 7.49-.27s5.03.09 7.51.27c23.01 1.65 43.96 10.83 60.41 25.08 3.78 3.28 7.32 6.82 10.6 10.6 15.769 18.22 25.319 41.96 25.319 67.88z" fill="#fed22b"/><path d="m499.097 335.087c-9.13 28.2-29.52 52.62-58.38 66.06-.66.31-1.33.61-2.01.91-35.61 15.74-74.96 11.25-105.199-8.59-16.99-11.12-31.1-27.09-40.08-47.01-2.47-5.47-4.45-11.04-5.97-16.65-4.43-16.36 8.49-32.29 25.43-31.68l21.8.8c11.58.42 21.89 7.3 26.89 17.75.06.13.13.26.19.39 1.78 3.6 4.1 6.79 6.83 9.48 8.66 8.62 21.39 12.43 33.51 9.67 1.77-.41 3.54-.95 5.27-1.64 15.14-6.03 23.81-21.03 22.63-36.27-.3-3.97-1.27-7.95-2.97-11.8-1.56-3.5-3.6-6.64-6.01-9.36-.73-.82-1.41-1.66-2.05-2.53-7.1-9.57-9.13-22.08-5.41-33.53 5.37-16.49 20.34-25.74 35.56-25.74 9.96 0 20.03 3.97 27.57 12.47 7.37 8.32 13.61 17.91 18.35 28.63 11.429 25.85 12.139 53.72 4.049 78.64z" fill="#fa9084"/><path d="m272.378 44.739c-48.95 8.33-86.32 51.05-86.32 102.339h-35c0-57.25 46.57-103.829 103.819-103.829 5.962 0 11.812.51 17.501 1.49z" fill="#fdc202"/><path d="m499.097 335.087-.15-.41c-13.8-42.12-68.74-36.39-68.74-36.39l-.2.02c-.3-3.97-1.27-7.95-2.97-11.8-1.56-3.5-3.6-6.64-6.01-9.36-.73-.82-1.41-1.66-2.05-2.53l.1-.08s25.77-41.03 75.97-18.09c11.43 25.85 12.14 53.72 4.05 78.64z" fill="#f76c57"/><path d="m440.717 401.147c-.66.31-1.33.61-2.01.91-35.61 15.74-74.96 11.25-105.199-8.59.02-.66.03-1.02.03-1.02 5.6-53.35 34.07-65.26 34.07-65.26l.99-.64c8.66 8.62 21.39 12.43 33.51 9.67v.01s-4.14 40.95 38.609 64.92z" fill="#f76c57"/><path d="m368.508 393.467c12.99 8.52 27.66 14.21 42.99 16.67-27.51 4.46-55.31-1.79-77.99-16.67-16.99-11.12-31.1-27.09-40.08-47.01-2.47-5.47-4.45-11.04-5.97-16.65-4.43-16.36 8.49-32.29 25.43-31.68l21.8.8c1.46.05 2.9.21 4.3.46-12.23 4.04-20.14 17.09-16.53 30.42 1.52 5.61 3.5 11.18 5.97 16.65 8.98 19.92 23.09 35.89 40.08 47.01z" fill="#f87b67"/><path d="m355.81 503.802h-200.45c-6.846 0-13.441-2.573-18.478-7.209l-103.842-95.582h443.694l-102.311 95.456c-5.052 4.713-11.704 7.335-18.613 7.335z" fill="#a0cafe"/><path d="m190.359 503.806h-35c-6.84 0-13.44-2.58-18.48-7.21l-103.839-95.589h35l103.839 95.589c5.04 4.63 11.64 7.21 18.48 7.21z" fill="#81b8fd"/><path d="m33.267 426.797h443.24c14.23 0 25.767-11.536 25.767-25.767 0-14.231-11.536-25.767-25.767-25.767h-443.24c-14.231.001-25.767 11.537-25.767 25.767 0 14.231 11.536 25.767 25.767 25.767z" fill="#62a6fd"/><path d="m44.05 419.247c4.66 4.67 11.11 7.55 18.22 7.55h-29c-7.11 0-13.56-2.88-18.22-7.55-4.67-4.66-7.55-11.11-7.55-18.22 0-14.23 11.54-25.76 25.77-25.76h29c-14.23 0-25.77 11.53-25.77 25.76 0 7.11 2.88 13.56 7.55 18.22z" fill="#4394fb"/><path d="m489.468 370.393c15.788-21.724 23.435-47.763 22.447-73.818-.158-4.139-3.638-7.356-7.779-7.209-4.139.157-7.367 3.641-7.21 7.779.211 5.57-.031 11.128-.782 17-14.175-17.239-37.607-23.728-59.832-23.62-1.459-5.805-4.023-11.161-7.776-16.037 7.367-8.511 27.642-26.142 60.778-12.354 1.021 2.494 1.949 5.03 2.767 7.573 1.268 3.943 5.492 6.113 9.436 4.843 3.943-1.268 6.112-5.493 4.843-9.436-4.948-15.382-13.052-29.852-24.053-42.273-27.096-30.544-78.07-11.391-78.07 29.781 0 10.917 3.972 21.396 11.175 29.499 4.539 5.123 7.208 11.842 7.208 18.933 0 29.957-40.643 39.925-54.278 12.387-3.724-7.784-9.786-13.905-17.105-17.705 8.567-14.565 21.187-48.051-.63-98.671-4.324-10.029-18.419-9.784-21.887.488l-9.052 26.8c-3.217-6.79-7.795-15.216-14.311-25.451-5.27-8.282-17.809-6.75-20.894 2.579-11.2 33.825-13.129 63.347 4.681 98.296-8.632 8.267-12.056 20.433-8.927 31.991.318 1.173.67 2.338 1.024 3.502l-55.238-15.982c-3.259-24.807-19.427-46.491-43.029-57.256-11.061-4.996-13.502-12.309-16.178-20.022-3.102-8.941-6.963-20.069-23.331-22.839-28.078-4.742-29.282 20.153-48.945 25.299-19.649 5.135-33.865-16.676-55.503 2.252-19.475 17.042 1.306 33.806-3.536 49.446-4.854 15.681-28.729 16.225-25.327 41.178 3.076 22.615 21.658 21.971 31.333 30.416h-8.224c-18.34.002-33.263 14.925-33.263 33.268s14.923 33.266 33.266 33.266h24.868l73.671 67.823c6.449 5.924 14.814 9.186 23.554 9.186h200.449c8.832 0 17.257-3.322 23.726-9.356l72.518-67.653h24.454c18.344 0 33.267-14.924 33.267-33.267 0-13.747-8.382-25.573-20.305-30.636zm-68.96-109.203c-5.818-19.266 8.686-38.343 28.619-38.343 14.362 0 22.311 8.937 30.146 20.537-22.907-4.601-43.497 2.566-58.765 17.806zm16.881 44.343c22.896.154 45.628 7.993 53.77 29.657-4.154 11.825-10.463 22.867-18.716 32.574h-55.46c-5.665-10.452-7.094-20.375-7.401-26.007 15.743-6.015 26.172-20.094 27.807-36.224zm-69.594 30.159c7.626 5.75 17.047 9.021 26.939 8.899.485 5.908 1.901 14.153 5.648 23.173h-54.108c6.603-19.966 16.711-28.821 21.521-32.072zm-13.025-15.867c.752 1.617 1.76 3.341 2.749 4.864-7.763 5.875-19.913 18.515-26.919 43.074h-14.948c-14.8-17.466-21.573-38.47-21.573-44.501 0-9.892 8.305-17.997 18.534-17.641l21.803.8c8.751.319 16.567 5.489 20.354 13.404zm-58.294-106.788c13.967 23.163 15.669 33.793 15.81 34.867.077 8.108 11.81 10.223 14.598 1.968l13.138-38.9c16.818 45.65 1.704 72.724-3.862 80.545-26.552-1.793-30.144-.619-34.078.615-17.09-34.17-10.994-61.846-5.606-79.095zm-271.455 122.287c-.88-6.455 1.396-8.538 8.107-13.611 5.905-4.464 13.254-10.02 16.686-21.107 3.386-10.937.372-20.008-2.049-27.297-3.032-9.125-3.267-11.446 1.133-15.296 6.534-5.715 10.518-4.688 19.696-1.596 7.694 2.594 17.27 5.82 29.724 2.566 12.505-3.273 19.199-10.654 24.578-16.585 6.015-6.633 9.038-9.961 18.072-8.436 7.24 1.225 8.649 4.288 11.66 12.965 2.935 8.459 7.138 21.079 24.149 28.764 16.709 7.621 28.758 22.042 33.083 38.913-19.174-5.569-36.269 2.775-44.561 16.915l-14.592 24.16c-4.145-3.686-8.326-7.64-12.465-11.732l2.7-2.362c8.505-7.441 11.062-19.769 6.219-29.979l-5.454-11.497c-1.775-3.742-6.249-5.337-9.991-3.562-3.743 1.775-5.337 6.248-3.562 9.991l5.454 11.497c1.981 4.176.936 9.218-2.543 12.261l-3.323 2.907c-23.208-24.497-42.689-49.776-42.963-50.133-2.522-3.285-7.229-3.904-10.516-1.382-3.286 2.522-3.904 7.23-1.383 10.516.766.998 9.755 12.665 22.685 27.713l-3.486 3.05c-3.479 3.043-8.616 3.41-12.49.892l-10.67-6.933c-3.474-2.256-8.118-1.271-10.375 2.203s-1.271 8.119 2.203 10.375c10.755 6.988 15.244 11.007 24.476 11.007 10.617 0 16.257-5.838 20.236-9.319 11.034 12.305 23.741 25.547 36.268 36.572h-81.575c-12.8-23.828-32.908-16.1-35.131-32.44zm344.281 155.658c-3.681 3.434-8.474 5.325-13.494 5.325h-200.449c-4.972 0-9.732-1.858-13.4-5.228l-61.679-56.782h349.783zm107.205-71.685h-443.241c-10.072 0-18.266-8.195-18.266-18.267s8.194-18.266 18.266-18.266h177.466c4.142 0 7.5-3.358 7.5-7.5s-3.358-7.5-7.5-7.5h-49.8l17.257-28.573c5.359-9.139 16.21-13.457 26.388-10.501 16.334 4.744 1.365.409 83.605 24.204 2.533 5.184 5.427 10.147 8.652 14.87h-56.102c-4.142 0-7.5 3.358-7.5 7.5s3.358 7.5 7.5 7.5h235.774c10.072 0 18.267 8.195 18.267 18.267s-8.194 18.266-18.266 18.266z"/><path d="m116.003 154.577h277.767c4.142 0 7.5-3.358 7.5-7.5 0-80.716-65.667-146.383-146.383-146.383s-146.384 65.667-146.384 146.383c0 4.142 3.358 7.5 7.5 7.5zm42.848-15c1.619-20.932 9.961-40.007 22.861-55.071l55.072 55.071zm88.536-10.609-55.069-55.068c15.063-12.898 34.137-21.239 55.068-22.858v77.926zm25.608 10.609 55.035-55.035c13.1 15.375 21.254 34.666 22.875 55.035zm-18.108-123.883c69.929 0 127.273 54.913 131.172 123.884h-20.104c-2.479-36.054-22.696-69.31-54.013-88.069-3.554-2.128-8.16-.973-10.288 2.58s-.973 8.16 2.58 10.288c4.705 2.818 9.114 6.019 13.21 9.54l-55.057 55.057v-77.92c5.499.426 10.945 1.309 16.261 2.662 4.015 1.022 8.096-1.404 9.118-5.418s-1.404-8.096-5.418-9.118c-67.875-17.28-133.943 31.775-138.529 100.397h-20.105c3.899-68.97 61.243-123.883 131.173-123.883z"/><path d="m194.52 175.075c-4.082.704-6.82 4.583-6.117 8.665l3.338 19.364c.629 3.651 3.799 6.227 7.382 6.227 4.677 0 8.187-4.208 7.4-8.775l-3.338-19.364c-.703-4.082-4.58-6.818-8.665-6.117z"/><path d="m253.396 205.495c2.418 0 4.793-1.168 6.24-3.329l10.93-16.329c2.304-3.442 1.381-8.101-2.061-10.405-3.443-2.304-8.101-1.38-10.405 2.061l-10.93 16.329c-3.349 5.004.288 11.673 6.226 11.673z"/><path d="m241.792 240.297c-3.971-1.176-8.145 1.087-9.323 5.058l-5.586 18.839c-1.424 4.802 2.178 9.634 7.193 9.634 3.235 0 6.221-2.11 7.187-5.37l5.586-18.839c1.179-3.971-1.086-8.144-5.057-9.322z"/></svg>