<svg id="Layer_1" enable-background="new 0 0 512 512" height="512" viewBox="0 0 512 512" width="512" xmlns="http://www.w3.org/2000/svg"><path d="m418.36 474.88c0 16.3-13.21 29.62-29.62 29.62h-265.48c-16.36 0-29.62-13.26-29.62-29.62 0-25.73 7.18-49.78 19.64-70.26 2.61-4.29 5.45-8.42 8.51-12.38 9.73-12.63 21.66-23.48 35.2-32 10.79-6.8 22.61-12.11 35.17-15.65 11.71-3.3 24.07-5.07 36.84-5.07h54c12.76 0 25.12 1.77 36.83 5.07 12.55 3.54 24.37 8.85 35.17 15.65 13.58 8.54 25.54 19.43 35.31 32.11 3.04 3.95 5.88 8.08 8.48 12.38 12.41 20.43 19.57 44.43 19.57 70.15z" fill="#e04955"/><path d="m264 339.52c-12.77 0-25.13 1.77-36.84 5.07-12.56 3.54-24.38 8.85-35.17 15.65-13.54 8.52-25.47 19.37-35.2 32-3.06 3.96-5.9 8.09-8.51 12.38-12.46 20.48-19.64 44.53-19.64 70.26 0 16.36 13.26 29.62 29.62 29.62h-35c-16.36 0-29.62-13.26-29.62-29.62 0-25.73 7.18-49.78 19.64-70.26 2.61-4.29 5.45-8.42 8.51-12.38 9.73-12.63 21.66-23.48 35.2-32 10.79-6.8 22.61-12.11 35.17-15.65 11.71-3.3 24.07-5.07 36.84-5.07z" fill="#da2f3c"/><path d="m355 360.24-.48.31-25.29 18.16c-24.23 17.4-38.67 45.93-38.67 76.39v49.4h-34.56v-65.45c0-30.46 14.45-58.99 38.67-76.39l25.16-18.07c12.55 3.54 24.37 8.85 35.17 15.65z" fill="#62a6fd"/><path d="m319.83 344.59-25.16 18.07c-12.11 8.7-21.78 20.18-28.42 33.3-6.64 13.11-10.25 27.86-10.25 43.09 0-30.46-14.45-58.99-38.67-76.39l-25.17-18.07c11.71-3.3 24.07-5.07 36.84-5.07h54c12.76 0 25.12 1.77 36.83 5.07z" fill="#f2d1a5"/><circle cx="256" cy="28.786" fill="#62a6fd" r="21.286"/><path d="m378.068 135.339h-244.136v-27.969c0-37.186 30.145-67.331 67.331-67.331h109.475c37.186 0 67.331 30.145 67.331 67.331v27.969z" fill="#e5646e"/><path d="m236.26 40.04c-37.18 0-67.33 30.14-67.33 67.33v27.97h-35v-27.97c0-37.19 30.15-67.33 67.33-67.33z" fill="#e04955"/><path d="m157.054 114.614h98.945.003 98.945c1.272 0 2.303 1.031 2.303 2.303v132.69c0 54.809-76.166 99.241-101.248 99.244s-.001 0-.002 0h-.002c-25.082-.004-101.248-44.435-101.248-99.244v-132.69c.001-1.272 1.032-2.303 2.304-2.303z" fill="#f2d1a5"/><path d="m273.5 344.82c-6.97 2.63-13.04 4.03-17.5 4.03-12.54 0-37.85-11.11-60.03-29.07s-41.22-42.76-41.22-70.17v-132.69c0-1.27 1.03-2.31 2.3-2.31h35c-1.27 0-2.3 1.04-2.3 2.31v132.69c0 27.41 19.04 52.21 41.22 70.17 14.3 11.58 29.89 20.31 42.53 25.04z" fill="#f2bb88"/><path d="m125.383 153.171v101.684c0 1.933 1.566 3.499 3.499 3.499 21.727 0 39.34-17.615 39.34-39.344v-26.755c0-21.497 17.587-39.085 39.081-39.085h-81.92z" fill="#e04955"/><path d="m386.617 153.171v101.684c0 1.933-1.566 3.499-3.499 3.499-21.727 0-39.34-17.615-39.34-39.344v-26.755c0-21.497-17.587-39.085-39.081-39.085h81.92z" fill="#e04955"/><path d="m390.924 153.731h-269.848c-11.912 0-21.568-9.656-21.568-21.568 0-11.912 9.656-21.568 21.568-21.568h269.848c11.912 0 21.568 9.656 21.568 21.568 0 11.911-9.656 21.568-21.568 21.568z" fill="#c62430"/><path d="m156.08 153.73h-35c-11.92 0-21.57-9.66-21.57-21.57 0-5.96 2.41-11.35 6.31-15.25 3.91-3.91 9.3-6.32 15.26-6.32h35c-5.96 0-11.35 2.41-15.26 6.32-3.9 3.9-6.31 9.29-6.31 15.25 0 11.91 9.65 21.57 21.57 21.57z" fill="#aa1f2a"/><path d="m256 439.05v65.45h-34.56v-49.4c0-30.46-14.44-58.99-38.67-76.39l-25.29-18.16-.49-.31c10.79-6.8 22.61-12.11 35.17-15.65l25.17 18.07c24.22 17.4 38.67 45.93 38.67 76.39z" fill="#62a6fd"/><path d="m229 339.52c-12.77 0-25.13 1.77-36.84 5.07l12.18 8.74c7.26-3.57 14.89-6.51 22.82-8.74 11.71-3.3 24.07-5.07 36.84-5.07z" fill="#f2bb88"/><path d="m308.997 334.377c26.188-17.846 49.007-43.655 54.484-71.979 4.827 2.239 10.095 3.677 15.636 4.149v67.418c0 4.142 3.357 7.5 7.5 7.5s7.5-3.358 7.5-7.5c0-7.559 0-165.355 0-172.912 14.531-1.596 25.875-13.94 25.875-28.889 0-16.028-13.04-29.068-29.068-29.068h-5.472c-.549-9.871-3.004-19.366-7.319-28.283-1.804-3.728-6.291-5.288-10.018-3.484-3.729 1.804-5.289 6.29-3.484 10.018 3.32 6.862 5.244 14.163 5.773 21.749h-28.854l-19.602-27.775 15.264-21.635c3.842 1.905 7.503 4.236 10.934 6.988 3.23 2.592 7.951 2.073 10.543-1.158s2.073-7.952-1.157-10.543c-13.209-10.597-29.922-16.433-46.792-16.433h-26.203c2.273-17.32-11.266-32.54-28.537-32.54-17.246 0-30.815 15.194-28.537 32.54h-26.203c-39.496 0-72.459 31.002-74.699 70.555h-5.485c-16.028 0-29.068 13.04-29.068 29.068 0 14.948 11.344 27.293 25.875 28.889v172.912c0 4.142 3.358 7.5 7.5 7.5s7.5-3.358 7.5-7.5v-67.418c5.522-.47 10.772-1.9 15.585-4.125 5.604 29.515 29.862 55.08 54.569 71.951-65.408 11.962-116.897 69.381-116.897 140.508 0 20.468 16.652 37.12 37.12 37.12h265.48c20.468 0 37.12-16.652 37.12-37.12 0-70.457-50.734-128.392-116.863-140.503zm70.12-82.898c-15.676-1.974-27.839-15.39-27.839-31.594v-26.755c0-12.175-4.696-23.276-12.371-31.584h40.21zm-88.058-203.939h19.681c3.964 0 7.857.389 11.651 1.131l-15.75 22.325c-1.828 2.592-1.828 6.055.001 8.647l16.55 23.451h-32.132l-19.601-27.777zm-18.359 55.555h-33.401l16.549-23.453c.058-.082.097-.171.151-.255.054.083.094.173.151.255zm-16.7-88.095c9.093 0 15.765 8.721 13.269 17.54h-26.538c-2.498-8.824 4.179-17.54 13.269-17.54zm16.7 32.54-16.549 23.453c-.058.082-.097.171-.151.255-.054-.083-.094-.173-.151-.255l-16.55-23.453zm-51.759 0 19.6 27.777-19.6 27.777h-32.132l16.549-23.451c1.829-2.592 1.83-6.055 0-8.647l-15.74-22.311c7.438-1.472 10.866-1.145 31.323-1.145zm-46.127 6.181 15.237 21.599-19.601 27.775h-28.85c1.539-21.676 14.665-40.193 33.214-49.374zm-53.739 92.509c-7.757 0-14.068-6.311-14.068-14.068s6.311-14.068 14.068-14.068h269.848c7.758 0 14.068 6.311 14.068 14.068s-6.311 14.068-14.068 14.068c-10.489 0-258.249 0-269.848 0zm39.647 73.655c0 16.204-12.164 29.62-27.839 31.594v-89.933h40.21c-7.674 8.308-12.371 19.409-12.371 31.584zm1.627 32.729c15.632-15.984 13.373-32.641 13.373-50.861 2.429 2.254 6.154 2.693 9.09.846 9.361-5.885 27.666-3.829 33.938-2.539 4.049.844 8.024-1.758 8.87-5.812.845-4.055-1.757-8.027-5.812-8.873-13.303-2.774-36.751-2.942-45.98 5.288 1.264-16.266 14.892-29.117 31.475-29.117.746 0 1.465-.113 2.146-.315h93.102c.68.203 1.399.315 2.146.315 16.583 0 30.213 12.852 31.476 29.118-9.325-8.316-32.786-8.039-45.98-5.288-4.052.845-6.648 4.811-5.81 8.863.84 4.052 4.806 6.656 8.861 5.824 6.268-1.291 24.58-3.35 33.943 2.537 2.919 1.835 6.645 1.422 9.091-.847 0 18.27-2.289 34.85 13.376 50.864-2.915 48.423-72.519 88.733-93.654 88.733-20.895 0-90.784-39.984-93.651-88.736zm51.592 244.386h-47.196c0-20.929.244-25.039-.94-33.757-.557-4.104-4.337-6.979-8.441-6.422s-6.98 4.336-6.422 8.441c1.012 7.452.804 10.447.804 31.739h-28.486c-12.197 0-22.12-9.923-22.12-22.12 0-23.865 6.691-46.317 18.292-65.546 9.888 7.868 18 18.016 23.586 29.576 1.294 2.678 3.971 4.239 6.758 4.239 5.496 0 9.159-5.775 6.748-10.765-6.72-13.908-16.562-26.091-28.591-35.451 8.204-10.591 18.029-19.878 29.086-27.483l21.377 15.356c22.258 15.981 35.546 42.261 35.546 70.298v41.895zm34.555 0h-19.555v-41.896c0-32.856-15.625-63.69-41.796-82.481l-16.094-11.561c6.325-3.255 12.95-5.995 19.82-8.168l22.082 15.859c22.255 15.984 35.542 42.264 35.542 70.297v57.95zm-38.173-148.604c4.78-.711 9.644-1.146 14.575-1.303 12.292 5.974 23.285 9.257 31.101 9.257s18.81-3.284 31.102-9.257c4.932.157 9.797.592 14.577 1.302-13.078 9.393-33.445 21.772-45.678 52.047-12.173-30.125-32.36-42.482-45.677-52.046zm134.931 148.604h-47.195c0-43.788-1.842-56.88 7.81-78.197 1.709-3.773.035-8.217-3.738-9.926-3.776-1.71-8.218-.035-9.926 3.738-11.178 24.687-9.146 40.497-9.146 84.385h-19.555v-57.949c0-28.034 13.287-54.313 35.542-70.297l22.086-15.862c6.871 2.172 13.496 4.913 19.821 8.167-16.843 12.1-22.625 15.697-30.921 24.658-4.457 4.812-.991 12.595 5.501 12.595 2.017 0 4.027-.808 5.505-2.405 7.218-7.795 11.108-10.053 33.949-26.461 11.056 7.604 20.88 16.892 29.084 27.483-24.37 18.946-38.817 48.658-38.817 80.245zm43.486 0h-28.486v-19.826c0-26.648 12.01-51.701 32.316-67.845 11.6 19.23 18.291 41.683 18.291 65.55-.001 12.198-9.924 22.121-22.121 22.121z"/><path d="m283.693 262.304c0-4.142-3.357-7.5-7.5-7.5s-7.5 3.358-7.5 7.5c0 6.999-5.694 12.693-12.693 12.693s-12.693-5.694-12.693-12.693c0-4.142-3.358-7.5-7.5-7.5s-7.5 3.358-7.5 7.5c0 15.27 12.423 27.693 27.693 27.693s27.693-12.423 27.693-27.693z"/><ellipse cx="204.114" cy="221.135" rx="11.996" ry="11.996" transform="matrix(.383 -.924 .924 .383 -78.299 325.086)"/><ellipse cx="307.886" cy="221.135" rx="11.996" ry="11.996" transform="matrix(.383 -.924 .924 .383 -14.239 420.96)"/></svg>