<?xml version="1.0" encoding="iso-8859-1"?>
<!-- Generator: Adobe Illustrator 19.0.0, SVG Export Plug-In . SVG Version: 6.00 Build 0)  -->
<svg version="1.1" id="Layer_1" xmlns="http://www.w3.org/2000/svg" xmlns:xlink="http://www.w3.org/1999/xlink" x="0px" y="0px"
	 viewBox="0 0 512 512" style="enable-background:new 0 0 512 512;" xml:space="preserve">
<g>
	<path style="fill:#FECC33;" d="M368.31,352.271c-18.711,0-33.933,15.222-33.933,33.933s15.222,33.933,33.933,33.933
		c16.778,0,30.742-12.243,33.451-28.261c1.504,3.948,2.334,8.226,2.334,12.697c0,19.731-16.053,35.785-35.785,35.785
		c-24.019,0-49.631-21.676-82.055-49.118c-40.012-33.864-89.808-76.009-162.038-99.555l-5.118,15.704
		c69.15,22.541,117.575,63.525,156.486,96.459c35.005,29.627,62.655,53.028,92.726,53.028c28.838,0,52.301-23.463,52.301-52.301
		C420.612,375.735,397.148,352.271,368.31,352.271z"/>
	<path style="fill:#FECC33;" d="M83.976,276.375V379.16c0,13.243-10.735,23.979-23.979,23.979l22.266,60.852
		c21.757,0,39.394-17.637,39.394-39.394l0.001-148.221H83.976V276.375z"/>
</g>
<path style="fill:#FFFFFF;" d="M189.47,166.735c-76.077,0-143.315,27.896-183.968,70.572
	c40.654,42.677,107.891,70.572,183.968,70.572c76.078,0,143.315-27.896,183.968-70.572
	C332.785,194.631,265.546,166.735,189.47,166.735z"/>
<path style="fill:#0962AD;" d="M503.742,181.293v16.505c-29.729,0-150.363-48.392-188.196-63.224
	c-38.417-15.063-79.905-22.693-123.309-22.693c-43.415,0-84.904,7.63-123.32,22.693c-18.707,7.333-36.313,16.384-52.4,26.877
	L5.505,131.832c16.395-10.35,45.662-24.235,64.512-31.304c38.626-14.468,80.224-21.482,123.618-20.821
	c43.393,0.65,84.75,8.908,122.924,24.543c5.351,2.092,24.202,10.108,33.429,13.697C400.99,138.714,503.742,181.293,503.742,181.293z
	"/>
<path style="fill:#0C80E4;" d="M503.742,148.294v32.999c-23.409-0.352-102.752-31.568-153.754-52.334
	c-9.227-3.59-28.077-11.605-33.429-13.697c-38.174-15.635-79.531-23.893-122.924-24.543c-43.393-0.661-84.992,6.353-123.618,20.821
	c-18.85,7.069-37.106,16.142-53.501,26.492l-11.011-6.199l11.011-40.63C33.55,81.139,53.061,72.011,72.22,65.482
	c39.055-13.301,80.841-19.06,124.212-17.1c43.36,1.971,84.463,11.462,122.164,28.243l33.021,14.721
	C401.992,113.643,480.355,147.237,503.742,148.294z"/>
<path style="fill:#00E4C5;" d="M8.258,66.007C3.696,66.007,0,69.704,0,74.265v87.183h16.516V74.265
	C16.516,69.704,12.82,66.007,8.258,66.007z"/>
<path style="fill:#00CCB1;" d="M192.23,166.735v141.146c38.981,0,70.572-31.592,70.572-70.572S231.21,166.735,192.23,166.735z"/>
<path style="fill:#00E4C5;" d="M192.229,166.735c-38.981,0-70.572,31.592-70.572,70.572s31.591,70.572,70.572,70.572
	c25.324,0,45.854-31.592,45.854-70.572S217.554,166.735,192.229,166.735z"/>
<circle cx="192.226" cy="237.303" r="35.785"/>
<path style="fill:#0C80E4;" d="M192.23,316.139c-75.316,0-146.325-27.341-189.949-73.135c-3.038-3.189-3.038-8.202,0-11.392
	c43.624-45.795,114.632-73.135,189.949-73.135c68.767,0,129.783,21.251,183.618,40c45.143,15.722,87.784,30.574,127.894,30.574
	c4.562,0,8.258,3.697,8.258,8.258s-3.696,8.258-8.258,8.258c-42.906,0-86.826-15.297-133.327-31.492
	c-55.168-19.214-112.212-39.08-178.185-39.08c-67.665,0-131.369,23.167-172.303,62.314c40.935,39.148,104.637,62.314,172.303,62.314
	c70.884,0,137.422-25.424,177.988-68.01c3.146-3.302,8.373-3.429,11.676-0.284c3.302,3.146,3.429,8.373,0.284,11.676
	C338.554,288.798,267.545,316.139,192.23,316.139z"/>
<g>
</g>
<g>
</g>
<g>
</g>
<g>
</g>
<g>
</g>
<g>
</g>
<g>
</g>
<g>
</g>
<g>
</g>
<g>
</g>
<g>
</g>
<g>
</g>
<g>
</g>
<g>
</g>
<g>
</g>
</svg>
