<?xml version="1.0" encoding="iso-8859-1"?>
<!-- Generator: Adobe Illustrator 19.0.0, SVG Export Plug-In . SVG Version: 6.00 Build 0)  -->
<svg version="1.1" id="Capa_1" xmlns="http://www.w3.org/2000/svg" xmlns:xlink="http://www.w3.org/1999/xlink" x="0px" y="0px"
	 viewBox="0 0 491.52 491.52" style="enable-background:new 0 0 491.52 491.52;" xml:space="preserve">
<circle style="fill:#EFC84A;" cx="245.76" cy="245.76" r="245.76"/>
<path style="fill:#3A556A;" d="M377.397,104.961H228.129c-5.061,0-9.164,4.102-9.164,9.163v263.273c0,5.061,4.103,9.163,9.164,9.163
	h149.268c5.06,0,9.163-4.103,9.163-9.163V114.124C386.56,109.063,382.457,104.961,377.397,104.961z"/>
<g>
	<rect x="239.447" y="154.573" style="fill:#EBF0F3;" width="126.633" height="212.931"/>
	<rect x="264.038" y="122.04" style="fill:#EBF0F3;" width="49.853" height="14.889"/>
</g>
<circle style="fill:#FCD462;" cx="330.342" cy="129.485" r="7.444"/>
<circle style="fill:#44C4A1;" cx="351.13" cy="129.485" r="7.444"/>
<circle style="fill:#E56353;" cx="371.866" cy="129.485" r="7.444"/>
<g>
	<rect x="231.68" y="172.995" style="fill:#64798A;" width="12.928" height="6.564"/>
	<rect x="231.68" y="201.267" style="fill:#64798A;" width="12.928" height="6.564"/>
	<rect x="326.195" y="201.267" style="fill:#64798A;" width="12.923" height="6.564"/>
	<rect x="231.68" y="229.509" style="fill:#64798A;" width="12.928" height="6.564"/>
</g>
<rect x="309.402" y="229.509" style="fill:#E56353;" width="12.923" height="6.564"/>
<rect x="339.098" y="229.509" style="fill:#27A2DB;" width="12.923" height="6.564"/>
<g>
	<rect x="231.68" y="257.792" style="fill:#64798A;" width="12.928" height="6.564"/>
	<rect x="231.68" y="286.024" style="fill:#64798A;" width="12.928" height="6.564"/>
	<rect x="231.68" y="314.266" style="fill:#64798A;" width="12.928" height="6.564"/>
	<rect x="231.68" y="342.543" style="fill:#64798A;" width="12.928" height="6.564"/>
</g>
<rect x="309.402" y="342.543" style="fill:#E56353;" width="12.923" height="6.564"/>
<rect x="341.248" y="342.543" style="fill:#FCD462;" width="12.923" height="6.564"/>
<rect x="260.127" y="172.995" style="fill:#E56353;" width="12.923" height="6.564"/>
<rect x="286.689" y="172.995" style="fill:#64798A;" width="12.923" height="6.564"/>
<g>
	<rect x="313.242" y="172.995" style="fill:#44C4A1;" width="12.923" height="6.564"/>
	<rect x="273.05" y="201.267" style="fill:#44C4A1;" width="33.833" height="6.564"/>
</g>
<rect x="260.127" y="229.509" style="fill:#64798A;" width="37.581" height="6.564"/>
<rect x="272.435" y="257.792" style="fill:#44C4A1;" width="12.923" height="6.564"/>
<rect x="297.728" y="257.792" style="fill:#DC8744;" width="38.917" height="6.564"/>
<rect x="260.127" y="286.024" style="fill:#E56353;" width="12.923" height="6.564"/>
<rect x="286.689" y="286.024" style="fill:#64798A;" width="12.923" height="6.564"/>
<rect x="313.242" y="286.024" style="fill:#FCD462;" width="38.779" height="6.564"/>
<g>
	<rect x="260.127" y="314.266" style="fill:#64798A;" width="12.923" height="6.564"/>
	<rect x="345.549" y="314.266" style="fill:#64798A;" width="12.923" height="6.564"/>
</g>
<rect x="286.689" y="314.266" style="fill:#27A2DB;" width="42.957" height="6.564"/>
<rect x="260.127" y="342.543" style="fill:#DC8744;" width="37.581" height="6.564"/>
<path style="fill:#64798A;" d="M263.392,104.961H114.124c-5.061,0-9.164,4.102-9.164,9.163v263.273c0,5.061,4.103,9.163,9.164,9.163
	h149.268c5.06,0,9.163-4.103,9.163-9.163V114.124C272.555,109.063,268.452,104.961,263.392,104.961z"/>
<rect x="125.44" y="125.44" style="fill:#EBF0F3;" width="126.633" height="212.931"/>
<g>
	<rect x="125.44" y="309.248" style="fill:#3A556A;" width="126.633" height="29.102"/>
	<path style="fill:#3A556A;" d="M188.756,375.175c-7.825,0-14.19-6.37-14.19-14.195c0-7.825,6.365-14.19,14.19-14.19
		c7.825,0,14.195,6.365,14.195,14.19C202.951,368.805,196.581,375.175,188.756,375.175z M188.756,351.91c-5,0-9.07,4.07-9.07,9.07
		c0,5.005,4.07,9.075,9.07,9.075c5.005,0,9.075-4.07,9.075-9.075C197.831,355.98,193.761,351.91,188.756,351.91z"/>
</g>
<g>
	<path style="fill:#FFFFFF;" d="M148.761,314.642h-13.36c-1.531,0-2.772,1.242-2.772,2.772v13.359c0,1.531,1.241,2.772,2.772,2.772
		h13.36c1.531,0,2.772-1.241,2.772-2.772v-13.359C151.533,315.884,150.291,314.642,148.761,314.642z"/>
	<path style="fill:#FFFFFF;" d="M179.878,314.642h-13.36c-1.531,0-2.772,1.242-2.772,2.772v13.359c0,1.531,1.241,2.772,2.772,2.772
		h13.36c1.531,0,2.772-1.241,2.772-2.772v-13.359C182.651,315.884,181.409,314.642,179.878,314.642z"/>
	<path style="fill:#FFFFFF;" d="M210.996,314.642h-13.36c-1.531,0-2.772,1.242-2.772,2.772v13.359c0,1.531,1.242,2.772,2.772,2.772
		h13.36c1.531,0,2.772-1.241,2.772-2.772v-13.359C213.769,315.884,212.527,314.642,210.996,314.642z"/>
	<path style="fill:#FFFFFF;" d="M242.114,314.642h-13.36c-1.531,0-2.772,1.242-2.772,2.772v13.359c0,1.531,1.242,2.772,2.772,2.772
		h13.36c1.531,0,2.772-1.241,2.772-2.772v-13.359C244.887,315.884,243.645,314.642,242.114,314.642z"/>
</g>
<path style="fill:#FCD462;" d="M153.009,278.105h-16.514c-1.893,0-3.427,1.535-3.427,3.428v16.514c0,1.893,1.534,3.427,3.427,3.427
	h16.514c1.893,0,3.427-1.534,3.427-3.427v-16.514C156.436,279.64,154.902,278.105,153.009,278.105z"/>
<path style="fill:#27A2DB;" d="M182.346,278.105h-16.514c-1.893,0-3.427,1.535-3.427,3.428v16.514c0,1.893,1.534,3.427,3.427,3.427
	h16.514c1.893,0,3.427-1.534,3.427-3.427v-16.514C185.773,279.64,184.239,278.105,182.346,278.105z"/>
<path style="fill:#44C4A1;" d="M211.683,278.105h-16.514c-1.893,0-3.427,1.535-3.427,3.428v16.514c0,1.893,1.534,3.427,3.427,3.427
	h16.514c1.893,0,3.427-1.534,3.427-3.427v-16.514C215.11,279.64,213.576,278.105,211.683,278.105z"/>
<g>
	<path style="fill:#E56353;" d="M241.02,278.105h-16.514c-1.893,0-3.427,1.535-3.427,3.428v16.514c0,1.893,1.534,3.427,3.427,3.427
		h16.514c1.893,0,3.427-1.534,3.427-3.427v-16.514C244.448,279.64,242.913,278.105,241.02,278.105z"/>
	<path style="fill:#E56353;" d="M153.009,245.285h-16.514c-1.893,0-3.427,1.535-3.427,3.428v16.514c0,1.893,1.534,3.427,3.427,3.427
		h16.514c1.893,0,3.427-1.534,3.427-3.427v-16.514C156.436,246.82,154.902,245.285,153.009,245.285z"/>
</g>
<path style="fill:#44C4A1;" d="M182.346,245.965h-16.514c-1.893,0-3.427,1.535-3.427,3.428v16.514c0,1.893,1.534,3.427,3.427,3.427
	h16.514c1.893,0,3.427-1.534,3.427-3.427v-16.514C185.773,247.5,184.239,245.965,182.346,245.965z"/>
<path style="fill:#FCD462;" d="M211.683,245.285h-16.514c-1.893,0-3.427,1.535-3.427,3.428v16.514c0,1.893,1.534,3.427,3.427,3.427
	h16.514c1.893,0,3.427-1.534,3.427-3.427v-16.514C215.11,246.82,213.576,245.285,211.683,245.285z"/>
<path style="fill:#27A2DB;" d="M241.02,245.285h-16.514c-1.893,0-3.427,1.535-3.427,3.428v16.514c0,1.893,1.534,3.427,3.427,3.427
	h16.514c1.893,0,3.427-1.534,3.427-3.427v-16.514C244.448,246.82,242.913,245.285,241.02,245.285z"/>
<rect x="132.408" y="141.527" style="fill:#FFFFFF;" width="91.075" height="18.033"/>
<rect x="223.483" y="141.527" style="fill:#64798A;" width="21.617" height="18.033"/>
<g>
</g>
<g>
</g>
<g>
</g>
<g>
</g>
<g>
</g>
<g>
</g>
<g>
</g>
<g>
</g>
<g>
</g>
<g>
</g>
<g>
</g>
<g>
</g>
<g>
</g>
<g>
</g>
<g>
</g>
</svg>
